%TF.GenerationSoftware,KiCad,Pcbnew,10.0.4*%
%TF.CreationDate,2026-07-25T09:17:01-05:00*%
%TF.ProjectId,QuadPreRecorder,51756164-5072-4655-9265-636f72646572,A*%
%TF.SameCoordinates,Original*%
%TF.FileFunction,Paste,Top*%
%TF.FilePolarity,Positive*%
%FSLAX46Y46*%
G04 Gerber Fmt 4.6, Leading zero omitted, Abs format (unit mm)*
G04 Created by KiCad (PCBNEW 10.0.4) date 2026-07-25 09:17:01*
%MOMM*%
%LPD*%
G01*
G04 APERTURE LIST*
G04 Aperture macros list*
%AMRoundRect*
0 Rectangle with rounded corners*
0 $1 Rounding radius*
0 $2 $3 $4 $5 $6 $7 $8 $9 X,Y pos of 4 corners*
0 Add a 4 corners polygon primitive as box body*
4,1,4,$2,$3,$4,$5,$6,$7,$8,$9,$2,$3,0*
0 Add four circle primitives for the rounded corners*
1,1,$1+$1,$2,$3*
1,1,$1+$1,$4,$5*
1,1,$1+$1,$6,$7*
1,1,$1+$1,$8,$9*
0 Add four rect primitives between the rounded corners*
20,1,$1+$1,$2,$3,$4,$5,0*
20,1,$1+$1,$4,$5,$6,$7,0*
20,1,$1+$1,$6,$7,$8,$9,0*
20,1,$1+$1,$8,$9,$2,$3,0*%
G04 Aperture macros list end*
%ADD10RoundRect,0.250000X-0.325000X-0.650000X0.325000X-0.650000X0.325000X0.650000X-0.325000X0.650000X0*%
%ADD11RoundRect,0.200000X0.275000X-0.200000X0.275000X0.200000X-0.275000X0.200000X-0.275000X-0.200000X0*%
%ADD12RoundRect,0.250000X0.650000X-0.325000X0.650000X0.325000X-0.650000X0.325000X-0.650000X-0.325000X0*%
%ADD13RoundRect,0.200000X-0.200000X-0.275000X0.200000X-0.275000X0.200000X0.275000X-0.200000X0.275000X0*%
%ADD14RoundRect,0.225000X-0.250000X0.225000X-0.250000X-0.225000X0.250000X-0.225000X0.250000X0.225000X0*%
%ADD15RoundRect,0.225000X0.250000X-0.225000X0.250000X0.225000X-0.250000X0.225000X-0.250000X-0.225000X0*%
%ADD16RoundRect,0.112500X0.112500X-0.187500X0.112500X0.187500X-0.112500X0.187500X-0.112500X-0.187500X0*%
%ADD17RoundRect,0.250000X-0.262500X-0.450000X0.262500X-0.450000X0.262500X0.450000X-0.262500X0.450000X0*%
%ADD18RoundRect,0.225000X-0.225000X-0.250000X0.225000X-0.250000X0.225000X0.250000X-0.225000X0.250000X0*%
%ADD19RoundRect,0.250000X0.900000X-1.000000X0.900000X1.000000X-0.900000X1.000000X-0.900000X-1.000000X0*%
%ADD20RoundRect,0.250000X-1.500000X-0.550000X1.500000X-0.550000X1.500000X0.550000X-1.500000X0.550000X0*%
%ADD21RoundRect,0.250000X-0.250000X-0.475000X0.250000X-0.475000X0.250000X0.475000X-0.250000X0.475000X0*%
%ADD22RoundRect,0.218750X-0.218750X-0.256250X0.218750X-0.256250X0.218750X0.256250X-0.218750X0.256250X0*%
%ADD23RoundRect,0.250000X0.650000X-1.000000X0.650000X1.000000X-0.650000X1.000000X-0.650000X-1.000000X0*%
%ADD24RoundRect,0.075000X-0.662500X-0.075000X0.662500X-0.075000X0.662500X0.075000X-0.662500X0.075000X0*%
%ADD25RoundRect,0.250000X-1.000000X-0.650000X1.000000X-0.650000X1.000000X0.650000X-1.000000X0.650000X0*%
%ADD26RoundRect,0.250000X0.625000X-0.375000X0.625000X0.375000X-0.625000X0.375000X-0.625000X-0.375000X0*%
%ADD27RoundRect,0.100000X-0.637500X-0.100000X0.637500X-0.100000X0.637500X0.100000X-0.637500X0.100000X0*%
%ADD28RoundRect,0.150000X-0.825000X-0.150000X0.825000X-0.150000X0.825000X0.150000X-0.825000X0.150000X0*%
%ADD29RoundRect,0.250000X0.475000X-0.250000X0.475000X0.250000X-0.475000X0.250000X-0.475000X-0.250000X0*%
%ADD30RoundRect,0.160000X-0.160000X-0.160000X0.160000X-0.160000X0.160000X0.160000X-0.160000X0.160000X0*%
%ADD31RoundRect,0.062500X-0.375000X-0.062500X0.375000X-0.062500X0.375000X0.062500X-0.375000X0.062500X0*%
%ADD32RoundRect,0.062500X-0.062500X-0.375000X0.062500X-0.375000X0.062500X0.375000X-0.062500X0.375000X0*%
%ADD33RoundRect,0.150000X-0.512500X-0.150000X0.512500X-0.150000X0.512500X0.150000X-0.512500X0.150000X0*%
%ADD34RoundRect,0.125000X-0.687500X-0.125000X0.687500X-0.125000X0.687500X0.125000X-0.687500X0.125000X0*%
%ADD35RoundRect,0.250000X-0.250000X-1.650000X0.250000X-1.650000X0.250000X1.650000X-0.250000X1.650000X0*%
G04 APERTURE END LIST*
D10*
%TO.C,C3*%
X40525000Y-115500000D03*
X43475000Y-115500000D03*
%TD*%
D11*
%TO.C,R17*%
X46000000Y-52825000D03*
X46000000Y-51175000D03*
%TD*%
%TO.C,R4*%
X24000000Y-64325000D03*
X24000000Y-62675000D03*
%TD*%
D12*
%TO.C,C28*%
X88000000Y-53475000D03*
X88000000Y-50525000D03*
%TD*%
D11*
%TO.C,R37*%
X92000000Y-52825000D03*
X92000000Y-51175000D03*
%TD*%
%TO.C,R5*%
X30000000Y-64325000D03*
X30000000Y-62675000D03*
%TD*%
D13*
%TO.C,R2*%
X29175000Y-116500000D03*
X30825000Y-116500000D03*
%TD*%
D14*
%TO.C,C59*%
X124000000Y-128725000D03*
X124000000Y-130275000D03*
%TD*%
D11*
%TO.C,R34*%
X92000000Y-34825000D03*
X92000000Y-33175000D03*
%TD*%
D15*
%TO.C,C31*%
X95000000Y-46775000D03*
X95000000Y-45225000D03*
%TD*%
D16*
%TO.C,D8*%
X23500000Y-47050000D03*
X23500000Y-44950000D03*
%TD*%
D12*
%TO.C,C27*%
X88000000Y-47475000D03*
X88000000Y-44525000D03*
%TD*%
D11*
%TO.C,R16*%
X46000000Y-46825000D03*
X46000000Y-45175000D03*
%TD*%
%TO.C,R22*%
X50000000Y-46825000D03*
X50000000Y-45175000D03*
%TD*%
D17*
%TO.C,R56*%
X105087500Y-76000000D03*
X106912500Y-76000000D03*
%TD*%
D15*
%TO.C,C14*%
X38000000Y-40775000D03*
X38000000Y-39225000D03*
%TD*%
D11*
%TO.C,R19*%
X54000000Y-34825000D03*
X54000000Y-33175000D03*
%TD*%
%TO.C,R23*%
X54000000Y-46825000D03*
X54000000Y-45175000D03*
%TD*%
D13*
%TO.C,R64*%
X108175000Y-122500000D03*
X109825000Y-122500000D03*
%TD*%
D18*
%TO.C,C58*%
X110225000Y-126500000D03*
X111775000Y-126500000D03*
%TD*%
D19*
%TO.C,D2*%
X22000000Y-145650000D03*
X22000000Y-141350000D03*
%TD*%
D15*
%TO.C,C13*%
X38000000Y-34775000D03*
X38000000Y-33225000D03*
%TD*%
D16*
%TO.C,D7*%
X23500000Y-41050000D03*
X23500000Y-38950000D03*
%TD*%
D12*
%TO.C,C18*%
X42000000Y-41475000D03*
X42000000Y-38525000D03*
%TD*%
D13*
%TO.C,R67*%
X27175000Y-68000000D03*
X28825000Y-68000000D03*
%TD*%
D20*
%TO.C,C1*%
X52300000Y-120000000D03*
X57700000Y-120000000D03*
%TD*%
D11*
%TO.C,R11*%
X35000000Y-40825000D03*
X35000000Y-39175000D03*
%TD*%
D21*
%TO.C,C57*%
X111550000Y-123500000D03*
X113450000Y-123500000D03*
%TD*%
D15*
%TO.C,C61*%
X124000000Y-125275000D03*
X124000000Y-123725000D03*
%TD*%
D13*
%TO.C,R55*%
X105175000Y-11000000D03*
X106825000Y-11000000D03*
%TD*%
D21*
%TO.C,C51*%
X75050000Y-103000000D03*
X76950000Y-103000000D03*
%TD*%
D11*
%TO.C,R18*%
X50000000Y-34825000D03*
X50000000Y-33175000D03*
%TD*%
D21*
%TO.C,C7*%
X78550000Y-72000000D03*
X80450000Y-72000000D03*
%TD*%
D22*
%TO.C,D4*%
X92212500Y-11000000D03*
X93787500Y-11000000D03*
%TD*%
D18*
%TO.C,C64*%
X79225000Y-113500000D03*
X80775000Y-113500000D03*
%TD*%
D10*
%TO.C,C10*%
X32525000Y-83500000D03*
X35475000Y-83500000D03*
%TD*%
D13*
%TO.C,R3*%
X32675000Y-118500000D03*
X34325000Y-118500000D03*
%TD*%
D21*
%TO.C,C2*%
X34050000Y-115500000D03*
X35950000Y-115500000D03*
%TD*%
D23*
%TO.C,D1*%
X22000000Y-153000000D03*
X22000000Y-149000000D03*
%TD*%
D13*
%TO.C,R63*%
X103175000Y-113000000D03*
X104825000Y-113000000D03*
%TD*%
D15*
%TO.C,C15*%
X38000000Y-46775000D03*
X38000000Y-45225000D03*
%TD*%
D10*
%TO.C,C6*%
X36525000Y-112500000D03*
X39475000Y-112500000D03*
%TD*%
D11*
%TO.C,R25*%
X54000000Y-52825000D03*
X54000000Y-51175000D03*
%TD*%
D18*
%TO.C,C4*%
X29225000Y-118500000D03*
X30775000Y-118500000D03*
%TD*%
D24*
%TO.C,U7*%
X109137500Y-45000000D03*
X109137500Y-45500000D03*
X109137500Y-46000000D03*
X109137500Y-46500000D03*
X109137500Y-47000000D03*
X109137500Y-47500000D03*
X109137500Y-48000000D03*
X109137500Y-48500000D03*
X109137500Y-49000000D03*
X109137500Y-49500000D03*
X109137500Y-50000000D03*
X109137500Y-50500000D03*
X109137500Y-51000000D03*
X109137500Y-51500000D03*
X109137500Y-52000000D03*
X114862500Y-52000000D03*
X114862500Y-51500000D03*
X114862500Y-51000000D03*
X114862500Y-50500000D03*
X114862500Y-50000000D03*
X114862500Y-49500000D03*
X114862500Y-49000000D03*
X114862500Y-48500000D03*
X114862500Y-48000000D03*
X114862500Y-47500000D03*
X114862500Y-47000000D03*
X114862500Y-46500000D03*
X114862500Y-46000000D03*
X114862500Y-45500000D03*
X114862500Y-45000000D03*
%TD*%
D11*
%TO.C,R35*%
X92000000Y-40825000D03*
X92000000Y-39175000D03*
%TD*%
%TO.C,R20*%
X50000000Y-40825000D03*
X50000000Y-39175000D03*
%TD*%
D18*
%TO.C,C56*%
X75225000Y-113500000D03*
X76775000Y-113500000D03*
%TD*%
D11*
%TO.C,R13*%
X35000000Y-52825000D03*
X35000000Y-51175000D03*
%TD*%
D13*
%TO.C,R66*%
X120175000Y-138000000D03*
X121825000Y-138000000D03*
%TD*%
D20*
%TO.C,C66*%
X33300000Y-68000000D03*
X38700000Y-68000000D03*
%TD*%
D25*
%TO.C,D3*%
X43000000Y-136000000D03*
X47000000Y-136000000D03*
%TD*%
D11*
%TO.C,R6*%
X32000000Y-34825000D03*
X32000000Y-33175000D03*
%TD*%
D15*
%TO.C,C60*%
X110000000Y-136775000D03*
X110000000Y-135225000D03*
%TD*%
D21*
%TO.C,C52*%
X78550000Y-102000000D03*
X80450000Y-102000000D03*
%TD*%
D26*
%TO.C,F1*%
X22000000Y-159400000D03*
X22000000Y-156600000D03*
%TD*%
D11*
%TO.C,R24*%
X50000000Y-52825000D03*
X50000000Y-51175000D03*
%TD*%
D15*
%TO.C,C29*%
X95000000Y-34775000D03*
X95000000Y-33225000D03*
%TD*%
D21*
%TO.C,C53*%
X82050000Y-102000000D03*
X83950000Y-102000000D03*
%TD*%
D13*
%TO.C,R54*%
X96175000Y-11000000D03*
X97825000Y-11000000D03*
%TD*%
D15*
%TO.C,C16*%
X38000000Y-52775000D03*
X38000000Y-51225000D03*
%TD*%
D11*
%TO.C,R10*%
X35000000Y-34825000D03*
X35000000Y-33175000D03*
%TD*%
D27*
%TO.C,U5*%
X64137500Y-52225000D03*
X64137500Y-52875000D03*
X64137500Y-53525000D03*
X64137500Y-54175000D03*
X64137500Y-54825000D03*
X64137500Y-55475000D03*
X64137500Y-56125000D03*
X64137500Y-56775000D03*
X69862500Y-56775000D03*
X69862500Y-56125000D03*
X69862500Y-55475000D03*
X69862500Y-54825000D03*
X69862500Y-54175000D03*
X69862500Y-53525000D03*
X69862500Y-52875000D03*
X69862500Y-52225000D03*
%TD*%
D11*
%TO.C,R36*%
X92000000Y-46825000D03*
X92000000Y-45175000D03*
%TD*%
D18*
%TO.C,C11*%
X37725000Y-83500000D03*
X39275000Y-83500000D03*
%TD*%
D11*
%TO.C,R12*%
X35000000Y-46825000D03*
X35000000Y-45175000D03*
%TD*%
D27*
%TO.C,U4*%
X64137500Y-40225000D03*
X64137500Y-40875000D03*
X64137500Y-41525000D03*
X64137500Y-42175000D03*
X64137500Y-42825000D03*
X64137500Y-43475000D03*
X64137500Y-44125000D03*
X64137500Y-44775000D03*
X69862500Y-44775000D03*
X69862500Y-44125000D03*
X69862500Y-43475000D03*
X69862500Y-42825000D03*
X69862500Y-42175000D03*
X69862500Y-41525000D03*
X69862500Y-40875000D03*
X69862500Y-40225000D03*
%TD*%
D28*
%TO.C,U3*%
X29525000Y-77095000D03*
X29525000Y-78365000D03*
X29525000Y-79635000D03*
X29525000Y-80905000D03*
X34475000Y-80905000D03*
X34475000Y-79635000D03*
X34475000Y-78365000D03*
X34475000Y-77095000D03*
%TD*%
D21*
%TO.C,C8*%
X84550000Y-72000000D03*
X86450000Y-72000000D03*
%TD*%
D10*
%TO.C,C55*%
X89025000Y-102000000D03*
X91975000Y-102000000D03*
%TD*%
D22*
%TO.C,D5*%
X101212500Y-11000000D03*
X102787500Y-11000000D03*
%TD*%
D13*
%TO.C,R65*%
X114175000Y-138000000D03*
X115825000Y-138000000D03*
%TD*%
D11*
%TO.C,R7*%
X32000000Y-40825000D03*
X32000000Y-39175000D03*
%TD*%
D13*
%TO.C,R68*%
X151175000Y-87500000D03*
X152825000Y-87500000D03*
%TD*%
D15*
%TO.C,C32*%
X95000000Y-52775000D03*
X95000000Y-51225000D03*
%TD*%
D13*
%TO.C,R42*%
X139175000Y-87500000D03*
X140825000Y-87500000D03*
%TD*%
D11*
%TO.C,R9*%
X32000000Y-52825000D03*
X32000000Y-51175000D03*
%TD*%
D21*
%TO.C,C9*%
X28550000Y-83500000D03*
X30450000Y-83500000D03*
%TD*%
D13*
%TO.C,R43*%
X143175000Y-87500000D03*
X144825000Y-87500000D03*
%TD*%
D12*
%TO.C,C17*%
X42000000Y-35475000D03*
X42000000Y-32525000D03*
%TD*%
D10*
%TO.C,C46*%
X50525000Y-136000000D03*
X53475000Y-136000000D03*
%TD*%
D15*
%TO.C,C65*%
X124000000Y-135275000D03*
X124000000Y-133725000D03*
%TD*%
D13*
%TO.C,R1*%
X25175000Y-116500000D03*
X26825000Y-116500000D03*
%TD*%
D12*
%TO.C,C20*%
X42000000Y-53475000D03*
X42000000Y-50525000D03*
%TD*%
%TO.C,C19*%
X42000000Y-47475000D03*
X42000000Y-44525000D03*
%TD*%
D29*
%TO.C,C12*%
X27000000Y-64450000D03*
X27000000Y-62550000D03*
%TD*%
D16*
%TO.C,D9*%
X23500000Y-53050000D03*
X23500000Y-50950000D03*
%TD*%
D15*
%TO.C,C30*%
X95000000Y-40775000D03*
X95000000Y-39225000D03*
%TD*%
D18*
%TO.C,C33*%
X147225000Y-87500000D03*
X148775000Y-87500000D03*
%TD*%
D30*
%TO.C,U10*%
X116600000Y-129100000D03*
X116600000Y-129900000D03*
X117400000Y-129100000D03*
X117400000Y-129900000D03*
D31*
X115562500Y-128750000D03*
X115562500Y-129250000D03*
X115562500Y-129750000D03*
X115562500Y-130250000D03*
D32*
X116250000Y-130937500D03*
X116750000Y-130937500D03*
X117250000Y-130937500D03*
X117750000Y-130937500D03*
D31*
X118437500Y-130250000D03*
X118437500Y-129750000D03*
X118437500Y-129250000D03*
X118437500Y-128750000D03*
D32*
X117750000Y-128062500D03*
X117250000Y-128062500D03*
X116750000Y-128062500D03*
X116250000Y-128062500D03*
%TD*%
D27*
%TO.C,U6*%
X73137500Y-46550000D03*
X73137500Y-47200000D03*
X73137500Y-47850000D03*
X73137500Y-48500000D03*
X73137500Y-49150000D03*
X73137500Y-49800000D03*
X73137500Y-50450000D03*
X78862500Y-50450000D03*
X78862500Y-49800000D03*
X78862500Y-49150000D03*
X78862500Y-48500000D03*
X78862500Y-47850000D03*
X78862500Y-47200000D03*
X78862500Y-46550000D03*
%TD*%
D12*
%TO.C,C26*%
X88000000Y-41475000D03*
X88000000Y-38525000D03*
%TD*%
D33*
%TO.C,U2*%
X81862500Y-68050000D03*
X81862500Y-69000000D03*
X81862500Y-69950000D03*
X84137500Y-69950000D03*
X84137500Y-68050000D03*
%TD*%
D11*
%TO.C,R21*%
X54000000Y-40825000D03*
X54000000Y-39175000D03*
%TD*%
D34*
%TO.C,U1*%
X18887500Y-111525000D03*
X18887500Y-112175000D03*
X18887500Y-112825000D03*
X18887500Y-113475000D03*
X23112500Y-113475000D03*
X23112500Y-112825000D03*
X23112500Y-112175000D03*
X23112500Y-111525000D03*
%TD*%
D18*
%TO.C,C54*%
X85725000Y-102000000D03*
X87275000Y-102000000D03*
%TD*%
D11*
%TO.C,R15*%
X46000000Y-40825000D03*
X46000000Y-39175000D03*
%TD*%
D10*
%TO.C,C5*%
X31525000Y-112500000D03*
X34475000Y-112500000D03*
%TD*%
D16*
%TO.C,D6*%
X23500000Y-35050000D03*
X23500000Y-32950000D03*
%TD*%
D11*
%TO.C,R8*%
X32000000Y-46825000D03*
X32000000Y-45175000D03*
%TD*%
D27*
%TO.C,U9*%
X79137500Y-106075000D03*
X79137500Y-106725000D03*
X79137500Y-107375000D03*
X79137500Y-108025000D03*
X79137500Y-108675000D03*
X79137500Y-109325000D03*
X79137500Y-109975000D03*
X79137500Y-110625000D03*
X79137500Y-111275000D03*
X79137500Y-111925000D03*
X84862500Y-111925000D03*
X84862500Y-111275000D03*
X84862500Y-110625000D03*
X84862500Y-109975000D03*
X84862500Y-109325000D03*
X84862500Y-108675000D03*
X84862500Y-108025000D03*
X84862500Y-107375000D03*
X84862500Y-106725000D03*
X84862500Y-106075000D03*
%TD*%
D11*
%TO.C,R14*%
X46000000Y-34825000D03*
X46000000Y-33175000D03*
%TD*%
D35*
%TO.C,L1*%
X26300000Y-112500000D03*
X28700000Y-112500000D03*
%TD*%
M02*
