M48
; DRILL file KiCad 10.0.4 date 2026-07-25T09:17:04
; FORMAT={-:-/ absolute / metric / decimal}
; #@! TF.CreationDate,2026-07-25T09:17:04-05:00
; #@! TF.GenerationSoftware,Kicad,Pcbnew,10.0.4
; #@! TF.FileFunction,Plated,1,2,PTH
FMAT,2
METRIC
; #@! TA.AperFunction,Plated,PTH,ViaDrill
T1C0.400
; #@! TA.AperFunction,Plated,PTH,ComponentDrill
T2C1.000
; #@! TA.AperFunction,Plated,PTH,ComponentDrill
T3C1.200
; #@! TA.AperFunction,Plated,PTH,ComponentDrill
T4C1.300
; #@! TA.AperFunction,Plated,PTH,ComponentDrill
T5C1.500
; #@! TA.AperFunction,Plated,PTH,ComponentDrill
T6C1.600
; #@! TA.AperFunction,Plated,PTH,ComponentDrill
T7C1.850
%
G90
G05
T1
X21.974Y-143.418
X23.715Y-145.494
X24.887Y-146.798
X29.024Y-146.146
X29.569Y-46.396
X29.569Y-52.825
X29.569Y-68.802
X31.444Y-42.58
X32.782Y-115.5
X36.184Y-35.495
X36.184Y-39.198
X36.279Y-52.211
X36.966Y-60.006
X36.973Y-77.707
X38.022Y-60.909
X44.199Y-51.935
X44.945Y-137.202
X46.856Y-43.443
X49.389Y-115.5
X49.766Y-147.337
X57.307Y-41.591
X57.489Y-149.228
X61.266Y-53.564
X61.266Y-62.453
X63.653Y-59.906
X64.4Y-149.55
X65.581Y-61.561
X65.876Y-152.222
X66.225Y-37.462
X66.225Y-48.256
X66.569Y-74.311
X67.745Y-44.775
X67.775Y-57.181
X68.483Y-40.875
X68.5Y-133.232
X68.717Y-48.729
X69.317Y-46.733
X69.451Y-45.657
X69.597Y-132.135
X69.789Y-133.566
X70.481Y-58.406
X71.325Y-137.623
X71.524Y-56.026
X71.546Y-120.561
X71.792Y-49.8
X72.022Y-81.061
X72.797Y-114.989
X73.174Y-36.549
X73.225Y-40.225
X74.105Y-114.52
X74.278Y-43.635
X74.438Y-47.2
X74.539Y-35.862
X76.36Y-66.755
X76.373Y-107.861
X76.632Y-137.735
X77.563Y-49.802
X78.267Y-130.246
X80.284Y-50.695
X80.292Y-84.72
X81.122Y-99.83
X81.34Y-53.808
X81.5Y-48.954
X82.213Y-105.802
X82.5Y-132.529
X83.175Y-116.693
X83.942Y-53.8
X84.45Y-41.784
X84.85Y-102.974
X85.89Y-114.326
X85.988Y-45.584
X85.99Y-147.337
X86.037Y-103.766
X86.202Y-107.379
X86.202Y-115.674
X86.341Y-111.482
X87.714Y-153.474
X88.0Y-34.114
X88.667Y-62.127
X88.825Y-112.183
X89.442Y-43.658
X89.505Y-117.414
X91.122Y-49.357
X92.187Y-56.904
X92.825Y-109.325
X92.867Y-35.502
X92.939Y-104.846
X93.462Y-25.788
X93.963Y-39.058
X95.175Y-111.046
X96.422Y-49.238
X96.5Y-45.092
X96.621Y-52.386
X96.67Y-104.816
X97.101Y-101.906
X97.718Y-97.66
X98.0Y-33.225
X98.0Y-41.789
X98.0Y-47.782
X98.0Y-60.308
X98.602Y-153.898
X99.225Y-111.545
X100.143Y-151.974
X100.816Y-147.534
X100.857Y-63.987
X100.857Y-168.161
X100.989Y-47.065
X102.216Y-113.663
X102.783Y-47.453
X103.785Y-147.649
X103.803Y-46.433
X104.198Y-11.071
X104.825Y-140.425
X105.151Y-123.237
X105.523Y-46.738
X107.175Y-95.535
X107.452Y-51.152
X107.594Y-74.729
X110.432Y-52.0
X111.18Y-61.92
X111.511Y-56.904
X111.779Y-48.5
X111.902Y-112.662
X112.241Y-50.085
X113.086Y-140.425
X113.35Y-52.0
X113.385Y-125.427
X113.45Y-50.906
X115.38Y-130.938
X116.075Y-123.931
X116.146Y-127.045
X116.158Y-47.805
X116.186Y-51.0
X116.376Y-136.999
X116.565Y-51.968
X116.898Y-138.473
X118.452Y-51.049
X118.775Y-47.5
X118.794Y-127.739
X120.978Y-155.479
X121.0Y-48.221
X144.407Y-115.599
X153.373Y-55.683
X156.284Y-43.314
X156.877Y-119.647
X159.739Y-131.082
X160.244Y-40.662
X165.708Y-56.79
X166.149Y-57.704
X169.488Y-92.938
X172.273Y-61.268
X173.04Y-56.296
T2
X2.36Y-50.305
X2.36Y-53.075
X2.36Y-55.845
X2.36Y-58.615
X5.2Y-48.92
X5.2Y-51.69
X5.2Y-54.46
X5.2Y-57.23
X5.2Y-60.0
X6.0Y-155.0
X6.0Y-157.5
X6.0Y-160.0
X8.5Y-155.0
X8.5Y-157.5
X8.5Y-160.0
X39.0Y-144.0
X39.0Y-161.78
X41.54Y-144.0
X41.54Y-161.78
X44.08Y-144.0
X44.08Y-161.78
X46.62Y-144.0
X46.62Y-161.78
X49.16Y-144.0
X49.16Y-161.78
X51.7Y-144.0
X51.7Y-161.78
X53.98Y-76.0
X54.24Y-144.0
X54.24Y-161.78
X56.52Y-76.0
X56.78Y-144.0
X56.78Y-161.78
X59.06Y-76.0
X59.32Y-144.0
X59.32Y-161.78
X61.6Y-76.0
X61.86Y-144.0
X61.86Y-161.78
X64.14Y-76.0
X64.4Y-144.0
X64.4Y-161.78
X66.68Y-76.0
X66.94Y-144.0
X66.94Y-161.78
X68.0Y-86.0
X68.0Y-88.5
X68.0Y-91.0
X69.22Y-76.0
X69.48Y-144.0
X69.48Y-161.78
X71.76Y-76.0
X72.02Y-144.0
X72.02Y-161.78
X74.3Y-76.0
X74.56Y-144.0
X74.56Y-161.78
X76.84Y-76.0
X77.1Y-144.0
X77.1Y-161.78
X79.38Y-76.0
X79.64Y-144.0
X79.64Y-161.78
X81.92Y-76.0
X82.18Y-144.0
X82.18Y-161.78
X82.5Y-86.0
X82.5Y-91.0
X84.46Y-76.0
X84.72Y-144.0
X84.72Y-161.78
X87.0Y-76.0
X87.26Y-144.0
X87.26Y-161.78
X89.8Y-144.0
X89.8Y-161.78
X92.34Y-144.0
X92.34Y-161.78
X94.88Y-144.0
X94.88Y-161.78
X97.42Y-144.0
X97.42Y-161.78
X167.7Y-26.0
X167.7Y-28.77
X167.7Y-31.54
X167.7Y-34.31
X167.7Y-37.08
X167.7Y-39.85
X167.7Y-42.62
X167.7Y-45.39
X167.7Y-48.16
X167.7Y-50.93
X167.7Y-53.7
X167.7Y-56.47
X167.7Y-59.24
X167.7Y-116.0
X167.7Y-118.77
X167.7Y-121.54
X167.7Y-124.31
X167.7Y-127.08
X167.7Y-129.85
X167.7Y-132.62
X167.7Y-135.39
X167.7Y-138.16
X167.7Y-140.93
X167.7Y-143.7
X167.7Y-146.47
X167.7Y-149.24
X170.54Y-27.385
X170.54Y-30.155
X170.54Y-32.925
X170.54Y-35.695
X170.54Y-38.465
X170.54Y-41.235
X170.54Y-44.005
X170.54Y-46.775
X170.54Y-49.545
X170.54Y-52.315
X170.54Y-55.085
X170.54Y-57.855
X170.54Y-117.385
X170.54Y-120.155
X170.54Y-122.925
X170.54Y-125.695
X170.54Y-128.465
X170.54Y-131.235
X170.54Y-134.005
X170.54Y-136.775
X170.54Y-139.545
X170.54Y-142.315
X170.54Y-145.085
X170.54Y-147.855
T3
X103.75Y-83.35
X103.75Y-93.65
X110.25Y-83.35
X110.25Y-93.65
T4
X50.0Y-86.0
X50.0Y-91.0
X62.5Y-86.0
X62.5Y-91.0
T5
X125.0Y-157.05
X125.0Y-163.4
X125.0Y-169.75
X136.43Y-157.05
X136.43Y-163.4
X136.43Y-169.75
T6
X22.0Y-165.8
X22.0Y-171.8
X26.7Y-168.8
T7
X2.2Y-93.46
X2.2Y-98.54
X14.9Y-96.0
X18.71Y-96.0
X22.52Y-96.0
T2
X4.5Y-124.5G85X4.5Y-123.5
G05
X6.9Y-122.5G85X6.9Y-121.5
G05
X12.4Y-122.5G85X12.4Y-121.5
G05
X103.75Y-88.05G85X103.75Y-88.95
G05
X110.25Y-88.05G85X110.25Y-88.95
G05
T5
X74.85Y-82.9G85X76.15Y-82.9
G05
X74.85Y-94.1G85X76.15Y-94.1
G05
M30
