M48
; DRILL file KiCad 10.0.4 date 2026-07-19T15:17:52
; FORMAT={-:-/ absolute / metric / decimal}
; #@! TF.CreationDate,2026-07-19T15:17:52-05:00
; #@! TF.GenerationSoftware,Kicad,Pcbnew,10.0.4
; #@! TF.FileFunction,Plated,1,2,PTH
FMAT,2
METRIC
; #@! TA.AperFunction,Plated,PTH,ViaDrill
T1C0.400
; #@! TA.AperFunction,Plated,PTH,ComponentDrill
T2C0.800
; #@! TA.AperFunction,Plated,PTH,ComponentDrill
T3C1.000
; #@! TA.AperFunction,Plated,PTH,ComponentDrill
T4C1.300
; #@! TA.AperFunction,Plated,PTH,ComponentDrill
T5C1.500
; #@! TA.AperFunction,Plated,PTH,ComponentDrill
T6C1.600
%
G90
G05
T1
X24.741Y-26.55
X25.497Y-20.569
X27.613Y-60.879
X28.335Y-23.465
X28.365Y-35.24
X28.382Y-29.199
X30.349Y-66.181
X31.178Y-51.012
X31.837Y-59.575
X32.209Y-64.847
X32.489Y-57.459
X39.548Y-30.957
X40.31Y-26.504
X42.014Y-67.177
X43.143Y-30.795
X43.467Y-27.255
X43.738Y-28.653
X44.741Y-67.829
X45.064Y-60.303
X46.865Y-24.262
X47.175Y-27.262
X48.248Y-65.849
X50.962Y-67.829
X51.514Y-55.174
X52.509Y-24.52
X53.044Y-64.549
X53.102Y-27.775
X53.666Y-58.382
X54.612Y-40.278
X54.977Y-26.254
X55.093Y-35.154
X55.165Y-23.074
X55.571Y-38.475
X55.845Y-29.084
X57.988Y-57.201
X58.009Y-30.432
X58.053Y-51.421
X58.5Y-32.711
X58.802Y-56.011
X60.0Y-58.8
X60.131Y-55.143
X60.851Y-61.285
X60.969Y-23.188
X61.448Y-30.2
X61.639Y-54.025
X64.568Y-32.8
X65.347Y-57.418
X65.598Y-27.438
X66.441Y-22.166
X67.169Y-30.888
X67.642Y-51.733
X69.755Y-29.932
X70.025Y-36.295
X70.46Y-22.327
X70.802Y-66.552
X71.365Y-56.767
X71.582Y-58.968
X71.625Y-77.205
X72.539Y-29.15
X72.829Y-41.975
X73.286Y-16.81
X75.32Y-17.194
X75.775Y-59.827
X75.946Y-70.547
X76.435Y-71.436
X76.495Y-23.063
X76.64Y-17.22
X76.774Y-18.942
X76.843Y-56.5
X77.271Y-12.313
X79.386Y-19.819
X80.07Y-68.802
X80.103Y-29.052
X81.015Y-28.332
X81.266Y-19.278
X81.545Y-32.149
X82.214Y-76.339
X83.771Y-29.387
X83.915Y-27.542
X83.937Y-41.736
X83.97Y-35.275
X84.417Y-17.883
X85.448Y-31.255
X85.61Y-23.877
X85.776Y-76.357
X85.871Y-77.328
X87.235Y-81.0
X88.216Y-81.034
X88.524Y-40.123
X88.877Y-35.111
X89.242Y-66.476
X89.441Y-76.435
X89.455Y-73.434
X89.531Y-31.5
X89.986Y-32.515
X90.108Y-70.917
X90.691Y-43.006
X90.703Y-33.189
X90.9Y-31.0
X91.386Y-35.334
X92.371Y-25.471
X92.573Y-36.338
X92.953Y-59.827
X94.215Y-35.791
X94.336Y-67.165
T2
X12.0Y-8.0
X14.0Y-8.0
X16.0Y-8.0
T3
X1.8Y-37.4
X1.8Y-40.17
X1.8Y-42.94
X1.8Y-45.71
X1.8Y-48.48
X4.64Y-38.785
X4.64Y-41.555
X4.64Y-44.325
X4.64Y-47.095
X24.0Y-63.0
X24.0Y-80.78
X26.54Y-63.0
X26.54Y-80.78
X29.08Y-63.0
X29.08Y-80.78
X31.62Y-63.0
X31.62Y-80.78
X34.16Y-63.0
X34.16Y-80.78
X36.7Y-63.0
X36.7Y-80.78
X39.24Y-63.0
X39.24Y-80.78
X41.78Y-63.0
X41.78Y-80.78
X41.98Y-19.0
X44.32Y-63.0
X44.32Y-80.78
X44.52Y-19.0
X46.0Y-7.0
X46.0Y-9.5
X46.0Y-12.0
X46.86Y-63.0
X46.86Y-80.78
X47.06Y-19.0
X49.4Y-63.0
X49.4Y-80.78
X49.6Y-19.0
X51.94Y-63.0
X51.94Y-80.78
X52.14Y-19.0
X54.48Y-63.0
X54.48Y-80.78
X54.68Y-19.0
X57.02Y-63.0
X57.02Y-80.78
X57.22Y-19.0
X59.56Y-63.0
X59.56Y-80.78
X59.76Y-19.0
X60.5Y-7.0
X60.5Y-12.0
X62.1Y-63.0
X62.1Y-80.78
X62.3Y-19.0
X64.64Y-63.0
X64.64Y-80.78
X64.84Y-19.0
X67.18Y-63.0
X67.18Y-80.78
X67.38Y-19.0
X69.72Y-63.0
X69.72Y-80.78
X69.92Y-19.0
X72.26Y-63.0
X72.26Y-80.78
X72.46Y-19.0
X74.8Y-63.0
X74.8Y-80.78
X75.0Y-19.0
X77.34Y-63.0
X77.34Y-80.78
X79.88Y-63.0
X79.88Y-80.78
X82.42Y-63.0
X82.42Y-80.78
X102.0Y-2.5
X102.0Y-5.0
X104.5Y-2.5
X104.5Y-5.0
X107.0Y-2.5
X107.0Y-5.0
T4
X27.0Y-7.0
X27.0Y-12.0
X39.5Y-7.0
X39.5Y-12.0
T5
X9.9Y-8.0
X18.1Y-8.0
X83.5Y-45.07
X83.5Y-56.5
X89.85Y-45.07
X89.85Y-56.5
X96.2Y-45.07
X96.2Y-56.5
T6
X102.0Y-77.0
X105.0Y-81.7
X108.0Y-77.0
T3
X96.3Y-68.0G85X96.3Y-69.0
G05
X101.8Y-68.0G85X101.8Y-69.0
G05
X104.2Y-66.0G85X104.2Y-67.0
G05
T5
X52.85Y-3.9G85X54.15Y-3.9
G05
X52.85Y-15.1G85X54.15Y-15.1
G05
M30
