%TF.GenerationSoftware,KiCad,Pcbnew,10.0.4*%
%TF.CreationDate,2026-09-15T16:10:07-06:00*%
%TF.ProjectId,QuadPreRecorder,51756164-5072-4655-9265-636f72646572,C3*%
%TF.SameCoordinates,Original*%
%TF.FileFunction,Paste,Top*%
%TF.FilePolarity,Positive*%
%FSLAX46Y46*%
G04 Gerber Fmt 4.6, Leading zero omitted, Abs format (unit mm)*
G04 Created by KiCad (PCBNEW 10.0.4) date 2026-09-15 16:10:07*
%MOMM*%
%LPD*%
G01*
G04 APERTURE LIST*
G04 Aperture macros list*
%AMRoundRect*
0 Rectangle with rounded corners*
0 $1 Rounding radius*
0 $2 $3 $4 $5 $6 $7 $8 $9 X,Y pos of 4 corners*
0 Add a 4 corners polygon primitive as box body*
4,1,4,$2,$3,$4,$5,$6,$7,$8,$9,$2,$3,0*
0 Add four circle primitives for the rounded corners*
1,1,$1+$1,$2,$3*
1,1,$1+$1,$4,$5*
1,1,$1+$1,$6,$7*
1,1,$1+$1,$8,$9*
0 Add four rect primitives between the rounded corners*
20,1,$1+$1,$2,$3,$4,$5,0*
20,1,$1+$1,$4,$5,$6,$7,0*
20,1,$1+$1,$6,$7,$8,$9,0*
20,1,$1+$1,$8,$9,$2,$3,0*%
G04 Aperture macros list end*
%ADD10RoundRect,0.200000X-0.200000X-0.275000X0.200000X-0.275000X0.200000X0.275000X-0.200000X0.275000X0*%
%ADD11RoundRect,0.225000X-0.225000X-0.250000X0.225000X-0.250000X0.225000X0.250000X-0.225000X0.250000X0*%
%ADD12RoundRect,0.150000X-0.587500X-0.150000X0.587500X-0.150000X0.587500X0.150000X-0.587500X0.150000X0*%
%ADD13RoundRect,0.150000X-0.825000X-0.150000X0.825000X-0.150000X0.825000X0.150000X-0.825000X0.150000X0*%
%ADD14RoundRect,0.200000X0.275000X-0.200000X0.275000X0.200000X-0.275000X0.200000X-0.275000X-0.200000X0*%
%ADD15RoundRect,0.250000X-0.250000X-0.475000X0.250000X-0.475000X0.250000X0.475000X-0.250000X0.475000X0*%
%ADD16RoundRect,0.250000X-0.295000X-0.295000X0.295000X-0.295000X0.295000X0.295000X-0.295000X0.295000X0*%
%ADD17RoundRect,0.062500X-0.350000X-0.062500X0.350000X-0.062500X0.350000X0.062500X-0.350000X0.062500X0*%
%ADD18RoundRect,0.062500X-0.062500X-0.350000X0.062500X-0.350000X0.062500X0.350000X-0.062500X0.350000X0*%
%ADD19RoundRect,0.100000X-0.637500X-0.100000X0.637500X-0.100000X0.637500X0.100000X-0.637500X0.100000X0*%
%ADD20RoundRect,0.225000X0.250000X-0.225000X0.250000X0.225000X-0.250000X0.225000X-0.250000X-0.225000X0*%
%ADD21RoundRect,0.249999X1.450001X-0.450001X1.450001X0.450001X-1.450001X0.450001X-1.450001X-0.450001X0*%
%ADD22R,1.800000X0.800000*%
%ADD23RoundRect,0.250000X-0.325000X-0.650000X0.325000X-0.650000X0.325000X0.650000X-0.325000X0.650000X0*%
%ADD24RoundRect,0.112500X0.112500X-0.187500X0.112500X0.187500X-0.112500X0.187500X-0.112500X-0.187500X0*%
%ADD25RoundRect,0.250000X-0.375000X-0.625000X0.375000X-0.625000X0.375000X0.625000X-0.375000X0.625000X0*%
%ADD26RoundRect,0.150000X0.150000X0.575000X-0.150000X0.575000X-0.150000X-0.575000X0.150000X-0.575000X0*%
%ADD27RoundRect,0.075000X0.075000X0.650000X-0.075000X0.650000X-0.075000X-0.650000X0.075000X-0.650000X0*%
%ADD28RoundRect,0.225000X-0.225000X-0.375000X0.225000X-0.375000X0.225000X0.375000X-0.225000X0.375000X0*%
%ADD29RoundRect,0.150000X0.587500X0.150000X-0.587500X0.150000X-0.587500X-0.150000X0.587500X-0.150000X0*%
%ADD30RoundRect,0.250000X-0.475000X0.250000X-0.475000X-0.250000X0.475000X-0.250000X0.475000X0.250000X0*%
%ADD31RoundRect,0.250000X-1.500000X-0.550000X1.500000X-0.550000X1.500000X0.550000X-1.500000X0.550000X0*%
%ADD32RoundRect,0.250000X0.475000X-0.250000X0.475000X0.250000X-0.475000X0.250000X-0.475000X-0.250000X0*%
%ADD33RoundRect,0.170000X-0.170000X-0.170000X0.170000X-0.170000X0.170000X0.170000X-0.170000X0.170000X0*%
%ADD34RoundRect,0.250000X-1.000000X-0.650000X1.000000X-0.650000X1.000000X0.650000X-1.000000X0.650000X0*%
%ADD35RoundRect,0.150000X-0.512500X-0.150000X0.512500X-0.150000X0.512500X0.150000X-0.512500X0.150000X0*%
%ADD36RoundRect,0.075000X-0.662500X-0.075000X0.662500X-0.075000X0.662500X0.075000X-0.662500X0.075000X0*%
%ADD37R,2.350000X5.100000*%
%ADD38RoundRect,0.250000X0.325000X1.100000X-0.325000X1.100000X-0.325000X-1.100000X0.325000X-1.100000X0*%
%ADD39RoundRect,0.250000X-0.325000X-1.100000X0.325000X-1.100000X0.325000X1.100000X-0.325000X1.100000X0*%
%ADD40RoundRect,0.250000X0.650000X-0.325000X0.650000X0.325000X-0.650000X0.325000X-0.650000X-0.325000X0*%
%ADD41RoundRect,0.250000X-0.250000X-1.650000X0.250000X-1.650000X0.250000X1.650000X-0.250000X1.650000X0*%
%ADD42RoundRect,0.125000X-0.687500X-0.125000X0.687500X-0.125000X0.687500X0.125000X-0.687500X0.125000X0*%
%ADD43RoundRect,0.250000X-1.000000X-0.900000X1.000000X-0.900000X1.000000X0.900000X-1.000000X0.900000X0*%
%ADD44RoundRect,0.250000X0.385000X0.405000X-0.385000X0.405000X-0.385000X-0.405000X0.385000X-0.405000X0*%
%ADD45RoundRect,0.100000X0.687500X0.100000X-0.687500X0.100000X-0.687500X-0.100000X0.687500X-0.100000X0*%
%ADD46RoundRect,0.250000X-0.262500X-0.450000X0.262500X-0.450000X0.262500X0.450000X-0.262500X0.450000X0*%
G04 APERTURE END LIST*
D10*
%TO.C,R84*%
X99175000Y-104000000D03*
X100825000Y-104000000D03*
%TD*%
D11*
%TO.C,C67*%
X92225000Y-55000000D03*
X93775000Y-55000000D03*
%TD*%
D12*
%TO.C,Q7*%
X33062500Y-78550000D03*
X33062500Y-80450000D03*
X34937500Y-79500000D03*
%TD*%
D13*
%TO.C,U3*%
X43525000Y-24095000D03*
X43525000Y-25365000D03*
X43525000Y-26635000D03*
X43525000Y-27905000D03*
X48475000Y-27905000D03*
X48475000Y-26635000D03*
X48475000Y-25365000D03*
X48475000Y-24095000D03*
%TD*%
D14*
%TO.C,R88*%
X136500000Y-29325000D03*
X136500000Y-27675000D03*
%TD*%
D10*
%TO.C,R87*%
X29175000Y-77500000D03*
X30825000Y-77500000D03*
%TD*%
D15*
%TO.C,C12*%
X9550000Y-64000000D03*
X11450000Y-64000000D03*
%TD*%
D10*
%TO.C,R67*%
X27175000Y-80000000D03*
X28825000Y-80000000D03*
%TD*%
D16*
%TO.C,U10*%
X111325000Y-55325000D03*
X111325000Y-56675000D03*
X112675000Y-55325000D03*
X112675000Y-56675000D03*
D17*
X110037500Y-55000000D03*
X110037500Y-55500000D03*
X110037500Y-56000000D03*
X110037500Y-56500000D03*
X110037500Y-57000000D03*
D18*
X111000000Y-57962500D03*
X111500000Y-57962500D03*
X112000000Y-57962500D03*
X112500000Y-57962500D03*
X113000000Y-57962500D03*
D17*
X113962500Y-57000000D03*
X113962500Y-56500000D03*
X113962500Y-56000000D03*
X113962500Y-55500000D03*
X113962500Y-55000000D03*
D18*
X113000000Y-54037500D03*
X112500000Y-54037500D03*
X112000000Y-54037500D03*
X111500000Y-54037500D03*
X111000000Y-54037500D03*
%TD*%
D10*
%TO.C,R62*%
X92175000Y-58000000D03*
X93825000Y-58000000D03*
%TD*%
D14*
%TO.C,R13*%
X34000000Y-105225000D03*
X34000000Y-103575000D03*
%TD*%
%TO.C,R9*%
X30000000Y-105225000D03*
X30000000Y-103575000D03*
%TD*%
D19*
%TO.C,U16*%
X49137500Y-59550000D03*
X49137500Y-60200000D03*
X49137500Y-60850000D03*
X49137500Y-61500000D03*
X49137500Y-62150000D03*
X49137500Y-62800000D03*
X49137500Y-63450000D03*
X54862500Y-63450000D03*
X54862500Y-62800000D03*
X54862500Y-62150000D03*
X54862500Y-61500000D03*
X54862500Y-60850000D03*
X54862500Y-60200000D03*
X54862500Y-59550000D03*
%TD*%
D20*
%TO.C,C61*%
X110300000Y-52525000D03*
X110300000Y-50975000D03*
%TD*%
D21*
%TO.C,C26*%
X74000000Y-93850000D03*
X74000000Y-89750000D03*
%TD*%
D14*
%TO.C,R15*%
X46000000Y-92625000D03*
X46000000Y-90975000D03*
%TD*%
D11*
%TO.C,C68*%
X95725000Y-55000000D03*
X97275000Y-55000000D03*
%TD*%
D19*
%TO.C,U6*%
X49137500Y-48050000D03*
X49137500Y-48700000D03*
X49137500Y-49350000D03*
X49137500Y-50000000D03*
X49137500Y-50650000D03*
X49137500Y-51300000D03*
X49137500Y-51950000D03*
X54862500Y-51950000D03*
X54862500Y-51300000D03*
X54862500Y-50650000D03*
X54862500Y-50000000D03*
X54862500Y-49350000D03*
X54862500Y-48700000D03*
X54862500Y-48050000D03*
%TD*%
D14*
%TO.C,R100*%
X26500000Y-71725000D03*
X26500000Y-70075000D03*
%TD*%
%TO.C,R130*%
X13300000Y-49425000D03*
X13300000Y-47775000D03*
%TD*%
%TO.C,R25*%
X54000000Y-105225000D03*
X54000000Y-103575000D03*
%TD*%
D22*
%TO.C,K1*%
X109500000Y-99700000D03*
X109500000Y-102900000D03*
X109500000Y-105100000D03*
X109500000Y-107300000D03*
X116500000Y-107300000D03*
X116500000Y-105100000D03*
X116500000Y-102900000D03*
X116500000Y-99700000D03*
%TD*%
D19*
%TO.C,U15*%
X37637500Y-60725000D03*
X37637500Y-61375000D03*
X37637500Y-62025000D03*
X37637500Y-62675000D03*
X37637500Y-63325000D03*
X37637500Y-63975000D03*
X37637500Y-64625000D03*
X37637500Y-65275000D03*
X43362500Y-65275000D03*
X43362500Y-64625000D03*
X43362500Y-63975000D03*
X43362500Y-63325000D03*
X43362500Y-62675000D03*
X43362500Y-62025000D03*
X43362500Y-61375000D03*
X43362500Y-60725000D03*
%TD*%
D14*
%TO.C,R101*%
X41000000Y-77925000D03*
X41000000Y-76275000D03*
%TD*%
D12*
%TO.C,Q3*%
X29062500Y-66050000D03*
X29062500Y-67950000D03*
X30937500Y-67000000D03*
%TD*%
D21*
%TO.C,C25*%
X74000000Y-87550000D03*
X74000000Y-83450000D03*
%TD*%
D10*
%TO.C,R3*%
X116175000Y-84000000D03*
X117825000Y-84000000D03*
%TD*%
D11*
%TO.C,C59*%
X111975000Y-52200000D03*
X113525000Y-52200000D03*
%TD*%
D23*
%TO.C,C74*%
X17025000Y-45000000D03*
X19975000Y-45000000D03*
%TD*%
D21*
%TO.C,C20*%
X42000000Y-106450000D03*
X42000000Y-102350000D03*
%TD*%
D12*
%TO.C,Q1*%
X5062500Y-57050000D03*
X5062500Y-58950000D03*
X6937500Y-58000000D03*
%TD*%
D21*
%TO.C,C18*%
X42000000Y-93850000D03*
X42000000Y-89750000D03*
%TD*%
D10*
%TO.C,R79*%
X16175000Y-41500000D03*
X17825000Y-41500000D03*
%TD*%
D24*
%TO.C,D9*%
X24000000Y-81050000D03*
X24000000Y-78950000D03*
%TD*%
D25*
%TO.C,F1*%
X5600000Y-18500000D03*
X8400000Y-18500000D03*
%TD*%
D14*
%TO.C,R11*%
X34000000Y-92625000D03*
X34000000Y-90975000D03*
%TD*%
D26*
%TO.C,J9*%
X43250000Y-6645000D03*
X42450000Y-6645000D03*
D27*
X41250000Y-6645000D03*
X40250000Y-6645000D03*
X39750000Y-6645000D03*
X38750000Y-6645000D03*
D26*
X37550000Y-6645000D03*
X36750000Y-6645000D03*
X36750000Y-6645000D03*
X37550000Y-6645000D03*
D27*
X38250000Y-6645000D03*
X39250000Y-6645000D03*
X40750000Y-6645000D03*
X41750000Y-6645000D03*
D26*
X42450000Y-6645000D03*
X43250000Y-6645000D03*
%TD*%
D14*
%TO.C,R20*%
X50000000Y-92625000D03*
X50000000Y-90975000D03*
%TD*%
D10*
%TO.C,R108*%
X33675000Y-71500000D03*
X35325000Y-71500000D03*
%TD*%
D28*
%TO.C,D13*%
X102350000Y-100500000D03*
X105650000Y-100500000D03*
%TD*%
D10*
%TO.C,R64*%
X107175000Y-48000000D03*
X108825000Y-48000000D03*
%TD*%
D29*
%TO.C,Q9*%
X38937500Y-80450000D03*
X38937500Y-78550000D03*
X37062500Y-79500000D03*
%TD*%
D30*
%TO.C,C52*%
X94700000Y-50950000D03*
X94700000Y-52850000D03*
%TD*%
D14*
%TO.C,R16*%
X46000000Y-98925000D03*
X46000000Y-97275000D03*
%TD*%
D23*
%TO.C,C10*%
X45525000Y-31000000D03*
X48475000Y-31000000D03*
%TD*%
D14*
%TO.C,R23*%
X54000000Y-98925000D03*
X54000000Y-97275000D03*
%TD*%
D20*
%TO.C,C30*%
X82000000Y-92575000D03*
X82000000Y-91025000D03*
%TD*%
D24*
%TO.C,D7*%
X24000000Y-73050000D03*
X24000000Y-70950000D03*
%TD*%
D10*
%TO.C,R42*%
X9675000Y-57500000D03*
X11325000Y-57500000D03*
%TD*%
%TO.C,R85*%
X99175000Y-107500000D03*
X100825000Y-107500000D03*
%TD*%
D11*
%TO.C,C78*%
X47225000Y-14000000D03*
X48775000Y-14000000D03*
%TD*%
%TO.C,C80*%
X4225000Y-45000000D03*
X5775000Y-45000000D03*
%TD*%
D31*
%TO.C,C1*%
X14300000Y-24500000D03*
X19700000Y-24500000D03*
%TD*%
D19*
%TO.C,U4*%
X37137500Y-41725000D03*
X37137500Y-42375000D03*
X37137500Y-43025000D03*
X37137500Y-43675000D03*
X37137500Y-44325000D03*
X37137500Y-44975000D03*
X37137500Y-45625000D03*
X37137500Y-46275000D03*
X42862500Y-46275000D03*
X42862500Y-45625000D03*
X42862500Y-44975000D03*
X42862500Y-44325000D03*
X42862500Y-43675000D03*
X42862500Y-43025000D03*
X42862500Y-42375000D03*
X42862500Y-41725000D03*
%TD*%
D15*
%TO.C,C9*%
X41050000Y-31000000D03*
X42950000Y-31000000D03*
%TD*%
D23*
%TO.C,C6*%
X121525000Y-88000000D03*
X124475000Y-88000000D03*
%TD*%
D20*
%TO.C,C14*%
X38000000Y-92575000D03*
X38000000Y-91025000D03*
%TD*%
D10*
%TO.C,R102*%
X37175000Y-82500000D03*
X38825000Y-82500000D03*
%TD*%
D14*
%TO.C,R34*%
X78000000Y-86325000D03*
X78000000Y-84675000D03*
%TD*%
D10*
%TO.C,R43*%
X13675000Y-57500000D03*
X15325000Y-57500000D03*
%TD*%
D11*
%TO.C,C75*%
X16225000Y-53500000D03*
X17775000Y-53500000D03*
%TD*%
D32*
%TO.C,C91*%
X135000000Y-15950000D03*
X135000000Y-14050000D03*
%TD*%
D19*
%TO.C,U5*%
X37137500Y-53725000D03*
X37137500Y-54375000D03*
X37137500Y-55025000D03*
X37137500Y-55675000D03*
X37137500Y-56325000D03*
X37137500Y-56975000D03*
X37137500Y-57625000D03*
X37137500Y-58275000D03*
X42862500Y-58275000D03*
X42862500Y-57625000D03*
X42862500Y-56975000D03*
X42862500Y-56325000D03*
X42862500Y-55675000D03*
X42862500Y-55025000D03*
X42862500Y-54375000D03*
X42862500Y-53725000D03*
%TD*%
D11*
%TO.C,C110*%
X32725000Y-60500000D03*
X34275000Y-60500000D03*
%TD*%
D33*
%TO.C,U13*%
X129080000Y-16080000D03*
X129080000Y-16920000D03*
X129920000Y-16080000D03*
X129920000Y-16920000D03*
D17*
X128037500Y-15750000D03*
X128037500Y-16250000D03*
X128037500Y-16750000D03*
X128037500Y-17250000D03*
D18*
X128750000Y-17962500D03*
X129250000Y-17962500D03*
X129750000Y-17962500D03*
X130250000Y-17962500D03*
D17*
X130962500Y-17250000D03*
X130962500Y-16750000D03*
X130962500Y-16250000D03*
X130962500Y-15750000D03*
D18*
X130250000Y-15037500D03*
X129750000Y-15037500D03*
X129250000Y-15037500D03*
X128750000Y-15037500D03*
%TD*%
D14*
%TO.C,R103*%
X26500000Y-74825000D03*
X26500000Y-73175000D03*
%TD*%
%TO.C,R17*%
X46000000Y-105225000D03*
X46000000Y-103575000D03*
%TD*%
D11*
%TO.C,C81*%
X8225000Y-45000000D03*
X9775000Y-45000000D03*
%TD*%
%TO.C,C11*%
X50725000Y-31000000D03*
X52275000Y-31000000D03*
%TD*%
D14*
%TO.C,R98*%
X41000000Y-74825000D03*
X41000000Y-73175000D03*
%TD*%
D12*
%TO.C,Q6*%
X33062500Y-74550000D03*
X33062500Y-76450000D03*
X34937500Y-75500000D03*
%TD*%
D20*
%TO.C,C13*%
X38000000Y-86275000D03*
X38000000Y-84725000D03*
%TD*%
D14*
%TO.C,R75*%
X33000000Y-9825000D03*
X33000000Y-8175000D03*
%TD*%
D10*
%TO.C,R83*%
X17675000Y-57500000D03*
X19325000Y-57500000D03*
%TD*%
%TO.C,R66*%
X124175000Y-67500000D03*
X125825000Y-67500000D03*
%TD*%
D20*
%TO.C,C15*%
X38000000Y-98875000D03*
X38000000Y-97325000D03*
%TD*%
D34*
%TO.C,D1*%
X12500000Y-18500000D03*
X16500000Y-18500000D03*
%TD*%
D10*
%TO.C,R65*%
X124175000Y-64000000D03*
X125825000Y-64000000D03*
%TD*%
D14*
%TO.C,R8*%
X30000000Y-98925000D03*
X30000000Y-97275000D03*
%TD*%
D12*
%TO.C,Q4*%
X29062500Y-70050000D03*
X29062500Y-71950000D03*
X30937500Y-71000000D03*
%TD*%
D14*
%TO.C,R14*%
X46000000Y-86325000D03*
X46000000Y-84675000D03*
%TD*%
%TO.C,R22*%
X50000000Y-98925000D03*
X50000000Y-97275000D03*
%TD*%
%TO.C,R21*%
X54000000Y-92625000D03*
X54000000Y-90975000D03*
%TD*%
D20*
%TO.C,C16*%
X38000000Y-105175000D03*
X38000000Y-103625000D03*
%TD*%
D35*
%TO.C,D11*%
X38862500Y-11850000D03*
X38862500Y-12800000D03*
X38862500Y-13750000D03*
X41137500Y-13750000D03*
X41137500Y-12800000D03*
X41137500Y-11850000D03*
%TD*%
D23*
%TO.C,C3*%
X112525000Y-92500000D03*
X115475000Y-92500000D03*
%TD*%
%TO.C,C76*%
X12025000Y-37500000D03*
X14975000Y-37500000D03*
%TD*%
D24*
%TO.C,D8*%
X24000000Y-77050000D03*
X24000000Y-74950000D03*
%TD*%
D30*
%TO.C,C51*%
X94700000Y-47450000D03*
X94700000Y-49350000D03*
%TD*%
D20*
%TO.C,C32*%
X82000000Y-105175000D03*
X82000000Y-103625000D03*
%TD*%
D32*
%TO.C,C90*%
X124000000Y-15950000D03*
X124000000Y-14050000D03*
%TD*%
D36*
%TO.C,U7*%
X80637500Y-46000000D03*
X80637500Y-46500000D03*
X80637500Y-47000000D03*
X80637500Y-47500000D03*
X80637500Y-48000000D03*
X80637500Y-48500000D03*
X80637500Y-49000000D03*
X80637500Y-49500000D03*
X80637500Y-50000000D03*
X80637500Y-50500000D03*
X80637500Y-51000000D03*
X80637500Y-51500000D03*
X80637500Y-52000000D03*
X80637500Y-52500000D03*
X80637500Y-53000000D03*
X86362500Y-53000000D03*
X86362500Y-52500000D03*
X86362500Y-52000000D03*
X86362500Y-51500000D03*
X86362500Y-51000000D03*
X86362500Y-50500000D03*
X86362500Y-50000000D03*
X86362500Y-49500000D03*
X86362500Y-49000000D03*
X86362500Y-48500000D03*
X86362500Y-48000000D03*
X86362500Y-47500000D03*
X86362500Y-47000000D03*
X86362500Y-46500000D03*
X86362500Y-46000000D03*
%TD*%
D23*
%TO.C,C88*%
X15525000Y-50000000D03*
X18475000Y-50000000D03*
%TD*%
D37*
%TO.C,L2*%
X15925000Y-31500000D03*
X20075000Y-31500000D03*
%TD*%
D20*
%TO.C,C31*%
X82000000Y-98875000D03*
X82000000Y-97325000D03*
%TD*%
D10*
%TO.C,R2*%
X108175000Y-84000000D03*
X109825000Y-84000000D03*
%TD*%
%TO.C,R80*%
X4175000Y-41500000D03*
X5825000Y-41500000D03*
%TD*%
D34*
%TO.C,D12*%
X5000000Y-37500000D03*
X9000000Y-37500000D03*
%TD*%
D38*
%TO.C,C87*%
X101875000Y-59100000D03*
X98925000Y-59100000D03*
%TD*%
D10*
%TO.C,R54*%
X69175000Y-108000000D03*
X70825000Y-108000000D03*
%TD*%
%TO.C,R55*%
X77175000Y-108000000D03*
X78825000Y-108000000D03*
%TD*%
D11*
%TO.C,C33*%
X9725000Y-61000000D03*
X11275000Y-61000000D03*
%TD*%
D38*
%TO.C,C86*%
X101875000Y-55700000D03*
X98925000Y-55700000D03*
%TD*%
D14*
%TO.C,R10*%
X34000000Y-86325000D03*
X34000000Y-84675000D03*
%TD*%
D15*
%TO.C,C2*%
X107050000Y-92500000D03*
X108950000Y-92500000D03*
%TD*%
D39*
%TO.C,C57*%
X104925000Y-54600000D03*
X107875000Y-54600000D03*
%TD*%
D10*
%TO.C,R77*%
X55175000Y-14000000D03*
X56825000Y-14000000D03*
%TD*%
%TO.C,R63*%
X95675000Y-58000000D03*
X97325000Y-58000000D03*
%TD*%
D28*
%TO.C,D24*%
X32350000Y-82500000D03*
X35650000Y-82500000D03*
%TD*%
D21*
%TO.C,C27*%
X74000000Y-100150000D03*
X74000000Y-96050000D03*
%TD*%
D14*
%TO.C,R24*%
X50000000Y-105225000D03*
X50000000Y-103575000D03*
%TD*%
%TO.C,R131*%
X13300000Y-53225000D03*
X13300000Y-51575000D03*
%TD*%
D10*
%TO.C,R94*%
X133175000Y-20500000D03*
X134825000Y-20500000D03*
%TD*%
D14*
%TO.C,R6*%
X30000000Y-86325000D03*
X30000000Y-84675000D03*
%TD*%
D10*
%TO.C,R5*%
X14175000Y-64000000D03*
X15825000Y-64000000D03*
%TD*%
%TO.C,R92*%
X126175000Y-20500000D03*
X127825000Y-20500000D03*
%TD*%
D14*
%TO.C,R7*%
X30000000Y-92625000D03*
X30000000Y-90975000D03*
%TD*%
D10*
%TO.C,R81*%
X8175000Y-41500000D03*
X9825000Y-41500000D03*
%TD*%
D21*
%TO.C,C17*%
X42000000Y-87550000D03*
X42000000Y-83450000D03*
%TD*%
D35*
%TO.C,U12*%
X8362500Y-49550000D03*
X8362500Y-50500000D03*
X8362500Y-51450000D03*
X10637500Y-51450000D03*
X10637500Y-49550000D03*
%TD*%
D19*
%TO.C,U9*%
X97137500Y-47075000D03*
X97137500Y-47725000D03*
X97137500Y-48375000D03*
X97137500Y-49025000D03*
X97137500Y-49675000D03*
X97137500Y-50325000D03*
X97137500Y-50975000D03*
X97137500Y-51625000D03*
X97137500Y-52275000D03*
X97137500Y-52925000D03*
X102862500Y-52925000D03*
X102862500Y-52275000D03*
X102862500Y-51625000D03*
X102862500Y-50975000D03*
X102862500Y-50325000D03*
X102862500Y-49675000D03*
X102862500Y-49025000D03*
X102862500Y-48375000D03*
X102862500Y-47725000D03*
X102862500Y-47075000D03*
%TD*%
D28*
%TO.C,D15*%
X121850000Y-28200000D03*
X125150000Y-28200000D03*
%TD*%
D14*
%TO.C,R35*%
X78000000Y-92625000D03*
X78000000Y-90975000D03*
%TD*%
D32*
%TO.C,C83*%
X5500000Y-51450000D03*
X5500000Y-49550000D03*
%TD*%
D14*
%TO.C,R18*%
X50000000Y-86325000D03*
X50000000Y-84675000D03*
%TD*%
D40*
%TO.C,C85*%
X20500000Y-19975000D03*
X20500000Y-17025000D03*
%TD*%
D11*
%TO.C,C60*%
X115475000Y-54600000D03*
X117025000Y-54600000D03*
%TD*%
D12*
%TO.C,Q2*%
X103062500Y-103050000D03*
X103062500Y-104950000D03*
X104937500Y-104000000D03*
%TD*%
D10*
%TO.C,R4*%
X5175000Y-64000000D03*
X6825000Y-64000000D03*
%TD*%
D34*
%TO.C,D14*%
X129000000Y-24500000D03*
X133000000Y-24500000D03*
%TD*%
D14*
%TO.C,R36*%
X78000000Y-98925000D03*
X78000000Y-97275000D03*
%TD*%
D20*
%TO.C,C29*%
X82000000Y-86275000D03*
X82000000Y-84725000D03*
%TD*%
D41*
%TO.C,L1*%
X110300000Y-88000000D03*
X112700000Y-88000000D03*
%TD*%
D14*
%TO.C,R37*%
X78000000Y-105225000D03*
X78000000Y-103575000D03*
%TD*%
D10*
%TO.C,R91*%
X122675000Y-20500000D03*
X124325000Y-20500000D03*
%TD*%
D23*
%TO.C,C77*%
X17025000Y-37500000D03*
X19975000Y-37500000D03*
%TD*%
D39*
%TO.C,C58*%
X104925000Y-60200000D03*
X107875000Y-60200000D03*
%TD*%
D10*
%TO.C,R86*%
X29175000Y-74500000D03*
X30825000Y-74500000D03*
%TD*%
D14*
%TO.C,R99*%
X41000000Y-81025000D03*
X41000000Y-79375000D03*
%TD*%
D23*
%TO.C,C5*%
X115525000Y-88000000D03*
X118475000Y-88000000D03*
%TD*%
D14*
%TO.C,R76*%
X47000000Y-9825000D03*
X47000000Y-8175000D03*
%TD*%
D29*
%TO.C,Q8*%
X38937500Y-76450000D03*
X38937500Y-74550000D03*
X37062500Y-75500000D03*
%TD*%
D14*
%TO.C,R19*%
X54000000Y-86325000D03*
X54000000Y-84675000D03*
%TD*%
D10*
%TO.C,R89*%
X123175000Y-31500000D03*
X124825000Y-31500000D03*
%TD*%
D11*
%TO.C,C89*%
X131225000Y-31500000D03*
X132775000Y-31500000D03*
%TD*%
D42*
%TO.C,U1*%
X102887500Y-87025000D03*
X102887500Y-87675000D03*
X102887500Y-88325000D03*
X102887500Y-88975000D03*
X107112500Y-88975000D03*
X107112500Y-88325000D03*
X107112500Y-87675000D03*
X107112500Y-87025000D03*
%TD*%
D10*
%TO.C,R82*%
X12175000Y-41500000D03*
X13825000Y-41500000D03*
%TD*%
D43*
%TO.C,D2*%
X5850000Y-23500000D03*
X10150000Y-23500000D03*
%TD*%
D21*
%TO.C,C19*%
X42000000Y-100150000D03*
X42000000Y-96050000D03*
%TD*%
D44*
%TO.C,U11*%
X10290000Y-32315000D03*
X10290000Y-30685000D03*
X8710000Y-32315000D03*
X8710000Y-30685000D03*
D45*
X12362500Y-33450000D03*
X12362500Y-32800000D03*
X12362500Y-32150000D03*
X12362500Y-31500000D03*
X12362500Y-30850000D03*
X12362500Y-30200000D03*
X12362500Y-29550000D03*
X6637500Y-29550000D03*
X6637500Y-30200000D03*
X6637500Y-30850000D03*
X6637500Y-31500000D03*
X6637500Y-32150000D03*
X6637500Y-32800000D03*
X6637500Y-33450000D03*
%TD*%
D20*
%TO.C,C109*%
X57500000Y-59275000D03*
X57500000Y-57725000D03*
%TD*%
D11*
%TO.C,C65*%
X115475000Y-56200000D03*
X117025000Y-56200000D03*
%TD*%
D14*
%TO.C,R104*%
X26500000Y-77925000D03*
X26500000Y-76275000D03*
%TD*%
D12*
%TO.C,Q5*%
X33062500Y-63550000D03*
X33062500Y-65450000D03*
X34937500Y-64500000D03*
%TD*%
D10*
%TO.C,R93*%
X129675000Y-20500000D03*
X131325000Y-20500000D03*
%TD*%
D28*
%TO.C,D17*%
X131450000Y-28200000D03*
X134750000Y-28200000D03*
%TD*%
D10*
%TO.C,R95*%
X123175000Y-24500000D03*
X124825000Y-24500000D03*
%TD*%
D24*
%TO.C,D6*%
X24000000Y-69050000D03*
X24000000Y-66950000D03*
%TD*%
D11*
%TO.C,C4*%
X112225000Y-84000000D03*
X113775000Y-84000000D03*
%TD*%
D25*
%TO.C,F2*%
X50600000Y-6000000D03*
X53400000Y-6000000D03*
%TD*%
D10*
%TO.C,R107*%
X37175000Y-68500000D03*
X38825000Y-68500000D03*
%TD*%
D21*
%TO.C,C28*%
X74000000Y-106450000D03*
X74000000Y-102350000D03*
%TD*%
D28*
%TO.C,D16*%
X126650000Y-28200000D03*
X129950000Y-28200000D03*
%TD*%
D10*
%TO.C,R1*%
X104175000Y-84000000D03*
X105825000Y-84000000D03*
%TD*%
%TO.C,R90*%
X127175000Y-31500000D03*
X128825000Y-31500000D03*
%TD*%
D46*
%TO.C,R56*%
X87087500Y-57000000D03*
X88912500Y-57000000D03*
%TD*%
D14*
%TO.C,R12*%
X34000000Y-98925000D03*
X34000000Y-97275000D03*
%TD*%
D10*
%TO.C,R106*%
X33675000Y-68500000D03*
X35325000Y-68500000D03*
%TD*%
D34*
%TO.C,D10*%
X50000000Y-10500000D03*
X54000000Y-10500000D03*
%TD*%
D10*
%TO.C,R78*%
X51175000Y-14000000D03*
X52825000Y-14000000D03*
%TD*%
D32*
%TO.C,C92*%
X136000000Y-25450000D03*
X136000000Y-23550000D03*
%TD*%
M02*
