%TF.GenerationSoftware,KiCad,Pcbnew,10.0.4*%
%TF.CreationDate,2026-07-19T15:17:51-05:00*%
%TF.ProjectId,QuadPreRecorder,51756164-5072-4655-9265-636f72646572,A*%
%TF.SameCoordinates,Original*%
%TF.FileFunction,Soldermask,Bot*%
%TF.FilePolarity,Negative*%
%FSLAX46Y46*%
G04 Gerber Fmt 4.6, Leading zero omitted, Abs format (unit mm)*
G04 Created by KiCad (PCBNEW 10.0.4) date 2026-07-19 15:17:51*
%MOMM*%
%LPD*%
G01*
G04 APERTURE LIST*
G04 Aperture macros list*
%AMRoundRect*
0 Rectangle with rounded corners*
0 $1 Rounding radius*
0 $2 $3 $4 $5 $6 $7 $8 $9 X,Y pos of 4 corners*
0 Add a 4 corners polygon primitive as box body*
4,1,4,$2,$3,$4,$5,$6,$7,$8,$9,$2,$3,0*
0 Add four circle primitives for the rounded corners*
1,1,$1+$1,$2,$3*
1,1,$1+$1,$4,$5*
1,1,$1+$1,$6,$7*
1,1,$1+$1,$8,$9*
0 Add four rect primitives between the rounded corners*
20,1,$1+$1,$2,$3,$4,$5,0*
20,1,$1+$1,$4,$5,$6,$7,0*
20,1,$1+$1,$6,$7,$8,$9,0*
20,1,$1+$1,$8,$9,$2,$3,0*%
G04 Aperture macros list end*
%ADD10O,1.800000X2.800000*%
%ADD11C,3.200000*%
%ADD12O,3.200000X1.900000*%
%ADD13R,1.700000X1.700000*%
%ADD14C,1.700000*%
%ADD15R,1.600000X1.600000*%
%ADD16C,1.600000*%
%ADD17RoundRect,0.450000X-0.450000X0.450000X-0.450000X-0.450000X0.450000X-0.450000X0.450000X0.450000X0*%
%ADD18C,1.800000*%
%ADD19R,2.000000X2.000000*%
%ADD20C,2.000000*%
%ADD21R,3.200000X2.000000*%
%ADD22O,2.200000X3.500000*%
%ADD23R,1.500000X2.500000*%
%ADD24O,1.500000X2.500000*%
%ADD25R,2.600000X2.600000*%
%ADD26C,2.600000*%
%ADD27RoundRect,0.200000X0.275000X-0.200000X0.275000X0.200000X-0.275000X0.200000X-0.275000X-0.200000X0*%
%ADD28RoundRect,0.225000X-0.225000X-0.250000X0.225000X-0.250000X0.225000X0.250000X-0.225000X0.250000X0*%
%ADD29RoundRect,0.200000X-0.200000X-0.275000X0.200000X-0.275000X0.200000X0.275000X-0.200000X0.275000X0*%
%ADD30RoundRect,0.250000X-0.325000X-0.650000X0.325000X-0.650000X0.325000X0.650000X-0.325000X0.650000X0*%
%ADD31RoundRect,0.250000X-0.250000X-0.475000X0.250000X-0.475000X0.250000X0.475000X-0.250000X0.475000X0*%
%ADD32RoundRect,0.225000X0.250000X-0.225000X0.250000X0.225000X-0.250000X0.225000X-0.250000X-0.225000X0*%
%ADD33R,1.800000X1.800000*%
%ADD34RoundRect,0.250000X0.650000X-0.325000X0.650000X0.325000X-0.650000X0.325000X-0.650000X-0.325000X0*%
%ADD35C,3.000000*%
G04 APERTURE END LIST*
D10*
%TO.C,J5*%
X96300000Y-68500000D03*
X104200000Y-66500000D03*
X101800000Y-68500000D03*
%TD*%
D11*
%TO.C,H8*%
X87000000Y-63250000D03*
%TD*%
D12*
%TO.C,SW2*%
X27000000Y-7000000D03*
X39500000Y-7000000D03*
X27000000Y-12000000D03*
X39500000Y-12000000D03*
%TD*%
D13*
%TO.C,J3*%
X75000000Y-19000000D03*
D14*
X72460000Y-19000000D03*
X69920000Y-19000000D03*
X67380000Y-19000000D03*
X64840000Y-19000000D03*
X62300000Y-19000000D03*
X59760000Y-19000000D03*
X57220000Y-19000000D03*
X54680000Y-19000000D03*
X52140000Y-19000000D03*
X49600000Y-19000000D03*
X47060000Y-19000000D03*
X44520000Y-19000000D03*
X41980000Y-19000000D03*
%TD*%
D11*
%TO.C,H2*%
X92000000Y-4000000D03*
%TD*%
%TO.C,H7*%
X9000000Y-63250000D03*
%TD*%
D15*
%TO.C,J2*%
X1800000Y-37400000D03*
D16*
X1800000Y-40170000D03*
X1800000Y-42940000D03*
X1800000Y-45710000D03*
X1800000Y-48480000D03*
X4640000Y-38785000D03*
X4640000Y-41555000D03*
X4640000Y-44325000D03*
X4640000Y-47095000D03*
%TD*%
D17*
%TO.C,RV1*%
X102000000Y-5000000D03*
D18*
X104500000Y-5000000D03*
X107000000Y-5000000D03*
X102000000Y-2500000D03*
X104500000Y-2500000D03*
X107000000Y-2500000D03*
%TD*%
D19*
%TO.C,SW3*%
X46000000Y-7000000D03*
D20*
X46000000Y-12000000D03*
X46000000Y-9500000D03*
D21*
X53500000Y-3900000D03*
X53500000Y-15100000D03*
D20*
X60500000Y-12000000D03*
X60500000Y-7000000D03*
%TD*%
D11*
%TO.C,H6*%
X87000000Y-21250000D03*
%TD*%
D22*
%TO.C,SW1*%
X9900000Y-8000000D03*
X18100000Y-8000000D03*
D23*
X12000000Y-8000000D03*
D24*
X14000000Y-8000000D03*
X16000000Y-8000000D03*
%TD*%
D25*
%TO.C,J1*%
X108000000Y-77000000D03*
D26*
X102000000Y-77000000D03*
X105000000Y-81700000D03*
%TD*%
D11*
%TO.C,H1*%
X4000000Y-4000000D03*
%TD*%
%TO.C,H5*%
X9000000Y-21250000D03*
%TD*%
D27*
%TO.C,R31*%
X68500000Y-29325000D03*
X68500000Y-27675000D03*
%TD*%
D28*
%TO.C,C36*%
X60225000Y-24500000D03*
X61775000Y-24500000D03*
%TD*%
%TO.C,C43*%
X95225000Y-32000000D03*
X96775000Y-32000000D03*
%TD*%
D27*
%TO.C,R39*%
X85000000Y-29325000D03*
X85000000Y-27675000D03*
%TD*%
D29*
%TO.C,R57*%
X56175000Y-60000000D03*
X57825000Y-60000000D03*
%TD*%
%TO.C,R53*%
X50175000Y-26000000D03*
X51825000Y-26000000D03*
%TD*%
%TO.C,R44*%
X79675000Y-14000000D03*
X81325000Y-14000000D03*
%TD*%
D27*
%TO.C,R29*%
X58500000Y-41325000D03*
X58500000Y-39675000D03*
%TD*%
D30*
%TO.C,C42*%
X94525000Y-24000000D03*
X97475000Y-24000000D03*
%TD*%
D28*
%TO.C,C63*%
X99225000Y-40000000D03*
X100775000Y-40000000D03*
%TD*%
%TO.C,C47*%
X30225000Y-18000000D03*
X31775000Y-18000000D03*
%TD*%
D27*
%TO.C,R40*%
X85000000Y-35325000D03*
X85000000Y-33675000D03*
%TD*%
D28*
%TO.C,C41*%
X95225000Y-20000000D03*
X96775000Y-20000000D03*
%TD*%
D31*
%TO.C,C38*%
X79050000Y-18000000D03*
X80950000Y-18000000D03*
%TD*%
D32*
%TO.C,C22*%
X71500000Y-29275000D03*
X71500000Y-27725000D03*
%TD*%
D29*
%TO.C,R60*%
X65175000Y-60000000D03*
X66825000Y-60000000D03*
%TD*%
%TO.C,R49*%
X94675000Y-14000000D03*
X96325000Y-14000000D03*
%TD*%
%TO.C,R46*%
X85675000Y-14000000D03*
X87325000Y-14000000D03*
%TD*%
D31*
%TO.C,C39*%
X79050000Y-22000000D03*
X80950000Y-22000000D03*
%TD*%
D28*
%TO.C,C34*%
X53225000Y-21500000D03*
X54775000Y-21500000D03*
%TD*%
%TO.C,C50*%
X50225000Y-30000000D03*
X51775000Y-30000000D03*
%TD*%
D18*
%TO.C,U8*%
X26540000Y-63000000D03*
X29080000Y-63000000D03*
X31620000Y-63000000D03*
X34160000Y-63000000D03*
X59560000Y-63000000D03*
X82420000Y-80780000D03*
X36700000Y-63000000D03*
X39240000Y-63000000D03*
X41780000Y-63000000D03*
X44320000Y-63000000D03*
X46860000Y-63000000D03*
X49400000Y-63000000D03*
X51940000Y-63000000D03*
X54480000Y-63000000D03*
X57020000Y-63000000D03*
X54480000Y-80780000D03*
X51940000Y-80780000D03*
X49400000Y-80780000D03*
X46860000Y-80780000D03*
X44320000Y-80780000D03*
X41780000Y-80780000D03*
X39240000Y-80780000D03*
X36700000Y-80780000D03*
X34160000Y-80780000D03*
X31620000Y-80780000D03*
X29080000Y-80780000D03*
X62100000Y-63000000D03*
X64640000Y-63000000D03*
X67180000Y-63000000D03*
X69720000Y-63000000D03*
X72260000Y-63000000D03*
X74800000Y-63000000D03*
X77340000Y-63000000D03*
X79880000Y-63000000D03*
X82420000Y-63000000D03*
X77340000Y-80780000D03*
X74800000Y-80780000D03*
X72260000Y-80780000D03*
X69720000Y-80780000D03*
X67180000Y-80780000D03*
X64640000Y-80780000D03*
X62100000Y-80780000D03*
X59560000Y-80780000D03*
X57020000Y-80780000D03*
D33*
X24000000Y-63000000D03*
D18*
X26540000Y-80780000D03*
X79880000Y-80780000D03*
X24000000Y-80780000D03*
%TD*%
D27*
%TO.C,R32*%
X68500000Y-35325000D03*
X68500000Y-33675000D03*
%TD*%
%TO.C,R30*%
X68500000Y-23325000D03*
X68500000Y-21675000D03*
%TD*%
D20*
%TO.C,FID6*%
X96000000Y-80000000D03*
%TD*%
D29*
%TO.C,R61*%
X68175000Y-60000000D03*
X69825000Y-60000000D03*
%TD*%
D28*
%TO.C,C40*%
X79225000Y-26000000D03*
X80775000Y-26000000D03*
%TD*%
D27*
%TO.C,R26*%
X58500000Y-23325000D03*
X58500000Y-21675000D03*
%TD*%
D20*
%TO.C,FID4*%
X80000000Y-5000000D03*
%TD*%
D32*
%TO.C,C24*%
X71500000Y-41275000D03*
X71500000Y-39725000D03*
%TD*%
D27*
%TO.C,R27*%
X58500000Y-29325000D03*
X58500000Y-27675000D03*
%TD*%
D30*
%TO.C,C37*%
X63525000Y-24500000D03*
X66475000Y-24500000D03*
%TD*%
D27*
%TO.C,R41*%
X85000000Y-41325000D03*
X85000000Y-39675000D03*
%TD*%
D28*
%TO.C,C48*%
X44225000Y-30000000D03*
X45775000Y-30000000D03*
%TD*%
D27*
%TO.C,R33*%
X68500000Y-41325000D03*
X68500000Y-39675000D03*
%TD*%
D34*
%TO.C,C25*%
X75000000Y-25475000D03*
X75000000Y-22525000D03*
%TD*%
D29*
%TO.C,R45*%
X82675000Y-14000000D03*
X84325000Y-14000000D03*
%TD*%
D32*
%TO.C,C21*%
X71500000Y-23275000D03*
X71500000Y-21725000D03*
%TD*%
D35*
%TO.C,J4*%
X86650000Y-54370000D03*
D20*
X93000000Y-45070000D03*
X93000000Y-56500000D03*
D35*
X89850000Y-56500000D03*
X89850000Y-45070000D03*
X96200000Y-56500000D03*
X96200000Y-45070000D03*
X83500000Y-56500000D03*
X83500000Y-45070000D03*
%TD*%
D28*
%TO.C,C35*%
X53225000Y-42000000D03*
X54775000Y-42000000D03*
%TD*%
D32*
%TO.C,C23*%
X71500000Y-35275000D03*
X71500000Y-33725000D03*
%TD*%
D27*
%TO.C,R38*%
X82000000Y-30825000D03*
X82000000Y-29175000D03*
%TD*%
%TO.C,R28*%
X58500000Y-35325000D03*
X58500000Y-33675000D03*
%TD*%
D20*
%TO.C,FID5*%
X10000000Y-78000000D03*
%TD*%
D28*
%TO.C,C44*%
X95225000Y-36000000D03*
X96775000Y-36000000D03*
%TD*%
D30*
%TO.C,C45*%
X94525000Y-40000000D03*
X97475000Y-40000000D03*
%TD*%
D29*
%TO.C,R59*%
X62175000Y-60000000D03*
X63825000Y-60000000D03*
%TD*%
D28*
%TO.C,C49*%
X47225000Y-30000000D03*
X48775000Y-30000000D03*
%TD*%
D29*
%TO.C,R47*%
X88675000Y-14000000D03*
X90325000Y-14000000D03*
%TD*%
%TO.C,R58*%
X59175000Y-60000000D03*
X60825000Y-60000000D03*
%TD*%
%TO.C,R48*%
X91675000Y-14000000D03*
X93325000Y-14000000D03*
%TD*%
D30*
%TO.C,C62*%
X98525000Y-34000000D03*
X101475000Y-34000000D03*
%TD*%
D29*
%TO.C,R52*%
X47175000Y-26000000D03*
X48825000Y-26000000D03*
%TD*%
%TO.C,R50*%
X27175000Y-18000000D03*
X28825000Y-18000000D03*
%TD*%
%TO.C,R62*%
X71175000Y-60000000D03*
X72825000Y-60000000D03*
%TD*%
%TO.C,R51*%
X44175000Y-26000000D03*
X45825000Y-26000000D03*
%TD*%
M02*
