M48
; DRILL file KiCad 10.0.4 date 2026-09-15T16:10:11
; FORMAT={-:-/ absolute / metric / decimal}
; #@! TF.CreationDate,2026-09-15T16:10:11-06:00
; #@! TF.GenerationSoftware,Kicad,Pcbnew,10.0.4
; #@! TF.FileFunction,Plated,1,4,PTH
FMAT,2
METRIC
; #@! TA.AperFunction,Plated,PTH,ViaDrill
T1C0.300
; #@! TA.AperFunction,Plated,PTH,ViaDrill
T2C0.400
; #@! TA.AperFunction,Plated,PTH,ComponentDrill
T3C0.600
; #@! TA.AperFunction,Plated,PTH,ComponentDrill
T4C0.750
; #@! TA.AperFunction,Plated,PTH,ComponentDrill
T5C0.890
; #@! TA.AperFunction,Plated,PTH,ComponentDrill
T6C0.900
; #@! TA.AperFunction,Plated,PTH,ComponentDrill
T7C1.000
; #@! TA.AperFunction,Plated,PTH,ComponentDrill
T8C1.100
; #@! TA.AperFunction,Plated,PTH,ComponentDrill
T9C1.200
; #@! TA.AperFunction,Plated,PTH,ComponentDrill
T10C1.500
; #@! TA.AperFunction,Plated,PTH,ComponentDrill
T11C1.570
; #@! TA.AperFunction,Plated,PTH,ComponentDrill
T12C1.600
%
G90
G05
T1
X5.547Y-32.342
X5.63Y-31.5
X6.02Y-58.95
X6.445Y-49.55
X6.47Y-45.0
X6.637Y-34.008
X7.409Y-34.098
X7.52Y-64.0
X8.5Y-29.55
X9.245Y-50.5
X9.5Y-29.55
X9.9Y-33.45
X10.47Y-45.0
X10.5Y-29.55
X10.52Y-41.5
X10.86Y-33.856
X11.592Y-28.9
X11.62Y-23.5
X11.97Y-61.0
X12.395Y-64.0
X13.6Y-30.9
X13.995Y-51.575
X14.25Y-31.5
X14.398Y-28.572
X14.52Y-41.5
X15.945Y-38.06
X16.02Y-57.5
X16.52Y-64.0
X18.47Y-53.5
X19.595Y-50.0
X21.095Y-37.5
X21.095Y-45.0
X21.62Y-17.025
X21.67Y-24.5
X27.195Y-70.075
X27.195Y-73.175
X27.195Y-76.275
X33.695Y-8.175
X34.02Y-65.45
X34.02Y-80.45
X34.849Y-74.674
X34.97Y-60.5
X36.02Y-71.5
X36.078Y-7.446
X36.68Y-60.725
X36.949Y-7.773
X38.037Y-46.602
X38.037Y-58.602
X38.081Y-45.791
X38.081Y-57.791
X38.095Y-43.025
X38.095Y-44.975
X38.095Y-55.025
X38.095Y-56.975
X38.537Y-65.602
X38.581Y-64.791
X38.595Y-62.025
X38.595Y-63.975
X39.745Y-12.8
X39.895Y-78.55
X41.47Y-40.0
X41.47Y-60.5
X43.051Y-7.773
X43.895Y-31.0
X43.922Y-7.446
X44.32Y-62.675
X44.32Y-63.975
X44.72Y-25.365
X47.695Y-8.175
X48.459Y-42.121
X49.47Y-14.0
X49.595Y-31.0
X50.595Y-56.0
X52.97Y-31.0
X53.52Y-14.0
X53.595Y-42.0
X55.82Y-50.0
X55.82Y-61.5
X58.195Y-57.725
X79.48Y-49.0
X79.48Y-51.5
X81.97Y-36.5
X81.97Y-59.5
X82.0Y-47.7
X82.0Y-49.3
X82.0Y-50.9
X82.0Y-52.5
X82.695Y-84.725
X82.695Y-91.025
X82.695Y-97.325
X82.695Y-103.625
X83.47Y-42.2
X84.259Y-49.421
X84.27Y-47.7
X84.27Y-50.9
X84.27Y-52.5
X84.617Y-48.635
X84.895Y-45.9
X86.695Y-84.675
X86.695Y-90.975
X86.695Y-97.275
X86.695Y-103.575
X87.52Y-48.5
X87.745Y-55.6
X87.745Y-59.5
X89.695Y-47.4
X89.695Y-49.85
X89.695Y-52.3
X89.895Y-63.0
X93.773Y-55.888
X94.395Y-59.0
X94.395Y-63.0
X94.47Y-55.0
X95.157Y-51.932
X95.631Y-53.014
X96.194Y-52.441
X96.925Y-46.385
X97.275Y-55.695
X98.095Y-48.375
X98.095Y-52.925
X98.5Y-47.08
X98.5Y-51.62
X100.02Y-44.5
X100.323Y-55.383
X100.4Y-56.237
X100.495Y-59.1
X101.5Y-47.08
X101.5Y-48.65
X101.52Y-107.5
X101.871Y-86.846
X101.92Y-52.441
X103.075Y-46.385
X103.47Y-24.0
X103.47Y-32.0
X103.82Y-49.675
X103.82Y-52.925
X103.904Y-89.154
X103.92Y-47.725
X104.02Y-104.95
X104.1Y-48.65
X107.47Y-16.0
X107.47Y-24.0
X107.47Y-32.0
X109.52Y-48.0
X109.895Y-92.5
X110.52Y-84.0
X110.62Y-107.3
X110.995Y-50.975
X111.1Y-55.1
X111.1Y-56.0
X111.1Y-56.9
X111.47Y-24.0
X111.47Y-32.0
X111.47Y-36.0
X111.5Y-53.305
X112.0Y-55.1
X112.0Y-56.0
X112.0Y-56.9
X112.627Y-58.684
X112.9Y-55.1
X112.9Y-56.0
X112.9Y-56.9
X113.632Y-57.962
X115.47Y-32.0
X115.47Y-36.0
X116.595Y-92.5
X117.62Y-107.3
X117.72Y-54.6
X117.72Y-56.2
X119.47Y-32.0
X119.595Y-88.0
X124.945Y-14.05
X125.02Y-20.5
X125.595Y-88.0
X128.038Y-17.883
X128.52Y-20.5
X129.52Y-31.5
X129.75Y-14.305
X130.0Y-16.0
X130.0Y-17.0
X132.02Y-20.5
X133.47Y-31.5
X135.945Y-14.05
X136.945Y-23.55
X137.032Y-28.122
T2
X4.0Y-10.0
X4.0Y-16.5
X4.0Y-25.5
X4.0Y-71.5
X4.0Y-88.5
X4.0Y-95.0
X4.0Y-101.5
X6.637Y-28.789
X7.0Y-107.0
X7.683Y-43.966
X8.5Y-5.5
X9.5Y-12.5
X9.5Y-91.0
X9.5Y-97.5
X10.0Y-70.0
X12.0Y-103.0
X12.287Y-58.244
X12.5Y-109.5
X14.0Y-8.0
X14.023Y-79.08
X14.5Y-16.0
X15.0Y-88.5
X15.0Y-95.0
X15.5Y-72.5
X17.5Y-100.5
X18.0Y-106.5
X18.191Y-84.169
X18.5Y-4.0
X20.5Y-68.5
X20.5Y-91.5
X21.5Y-60.0
X22.04Y-82.134
X22.5Y-11.0
X23.0Y-97.0
X23.5Y-104.0
X23.705Y-80.185
X24.5Y-4.5
X24.5Y-54.0
X25.025Y-82.58
X25.731Y-78.697
X26.0Y-109.5
X26.5Y-40.5
X26.721Y-31.838
X27.0Y-47.0
X27.5Y-18.5
X27.875Y-77.768
X27.96Y-55.675
X28.0Y-24.5
X28.065Y-85.344
X28.5Y-11.5
X28.552Y-72.811
X28.612Y-53.725
X30.271Y-47.848
X30.37Y-80.777
X30.938Y-35.722
X30.938Y-70.145
X30.955Y-91.969
X31.315Y-82.753
X31.542Y-79.664
X32.5Y-109.5
X32.685Y-71.423
X32.698Y-43.675
X32.73Y-75.501
X33.0Y-15.5
X33.016Y-98.364
X33.5Y-21.5
X34.252Y-34.213
X34.585Y-62.675
X34.71Y-87.182
X36.044Y-63.488
X37.037Y-98.172
X37.085Y-39.712
X37.107Y-83.979
X37.175Y-81.472
X38.0Y-25.5
X38.684Y-70.592
X38.692Y-75.441
X39.0Y-19.0
X39.0Y-109.5
X39.072Y-103.572
X39.109Y-90.595
X39.408Y-77.581
X39.439Y-91.881
X39.565Y-81.677
X39.75Y-85.511
X39.962Y-56.998
X40.152Y-43.119
X40.311Y-66.756
X41.57Y-56.325
X41.663Y-10.973
X41.995Y-98.172
X42.414Y-68.696
X42.485Y-73.305
X42.94Y-47.708
X43.066Y-59.029
X43.268Y-9.878
X43.628Y-47.043
X43.709Y-85.686
X44.0Y-91.881
X44.171Y-56.975
X44.225Y-43.632
X44.318Y-54.9
X44.564Y-67.02
X44.702Y-46.919
X44.84Y-97.94
X44.863Y-57.659
X44.915Y-86.279
X45.15Y-61.703
X45.5Y-109.5
X45.503Y-79.793
X46.163Y-81.025
X46.411Y-75.346
X46.525Y-57.682
X47.094Y-61.468
X47.148Y-83.945
X47.228Y-66.012
X47.27Y-65.037
X47.34Y-45.841
X47.445Y-51.772
X47.458Y-58.356
X48.283Y-82.883
X48.491Y-102.02
X48.971Y-104.245
X49.5Y-21.5
X49.652Y-68.696
X50.285Y-102.253
X50.334Y-45.99
X50.621Y-78.396
X51.437Y-30.123
X51.796Y-52.034
X51.882Y-76.69
X52.5Y-4.0
X52.505Y-49.286
X52.611Y-74.642
X52.614Y-67.747
X52.639Y-61.514
X52.67Y-55.267
X52.735Y-82.635
X52.737Y-77.875
X52.891Y-93.291
X52.918Y-69.398
X52.977Y-18.05
X53.189Y-47.703
X53.293Y-52.091
X53.935Y-73.372
X53.936Y-87.35
X54.5Y-25.0
X54.91Y-87.632
X55.469Y-93.584
X56.645Y-81.528
X56.711Y-30.643
X57.0Y-8.5
X57.297Y-82.327
X57.369Y-19.927
X57.67Y-54.27
X57.708Y-52.34
X57.77Y-47.322
X58.0Y-68.0
X58.009Y-78.775
X58.117Y-48.7
X58.36Y-51.3
X60.0Y-95.17
X60.5Y-73.5
X61.063Y-85.082
X61.176Y-38.321
X61.205Y-67.693
X62.0Y-4.0
X63.694Y-23.246
X64.0Y-78.5
X64.11Y-92.014
X64.492Y-40.793
X64.5Y-9.5
X66.064Y-48.451
X67.39Y-45.99
X68.113Y-52.514
X68.4Y-106.791
X68.492Y-33.897
X68.5Y-4.0
X69.341Y-36.06
X69.975Y-93.85
X69.993Y-32.625
X70.568Y-106.45
X70.872Y-57.637
X70.878Y-35.409
X70.879Y-38.455
X70.946Y-86.906
X71.0Y-9.5
X71.037Y-99.456
X71.038Y-91.131
X71.137Y-30.643
X71.5Y-109.5
X72.076Y-104.315
X72.434Y-64.429
X72.482Y-32.589
X72.935Y-97.879
X72.945Y-74.568
X73.51Y-17.683
X73.849Y-15.51
X74.049Y-51.441
X74.82Y-109.707
X75.786Y-64.798
X76.0Y-67.5
X76.5Y-88.5
X76.5Y-95.0
X76.5Y-103.5
X77.151Y-26.247
X77.962Y-64.483
X78.5Y-73.0
X78.5Y-79.5
X78.515Y-62.475
X78.901Y-52.167
X79.137Y-68.926
X79.335Y-46.359
X79.772Y-37.581
X79.928Y-63.398
X80.0Y-109.0
X80.638Y-53.722
X82.462Y-61.176
X83.695Y-76.507
X84.901Y-105.404
X84.928Y-92.398
X84.967Y-98.875
X85.007Y-85.74
X85.026Y-42.797
X86.5Y-70.0
X86.5Y-77.5
X88.914Y-59.413
X88.947Y-42.753
X89.205Y-10.509
X91.5Y-73.5
X91.827Y-43.462
X92.0Y-94.0
X92.0Y-106.5
X92.319Y-48.093
X92.5Y-82.5
X92.598Y-76.205
X93.721Y-35.498
X94.5Y-99.5
X95.5Y-69.0
X95.5Y-89.0
X96.357Y-59.326
X96.588Y-43.542
X97.232Y-38.707
X97.5Y-79.0
X97.79Y-40.188
X98.0Y-94.5
X98.451Y-15.51
X98.5Y-33.791
X99.347Y-50.348
X99.497Y-51.466
X99.825Y-37.753
X100.5Y-100.0
X100.625Y-51.534
X101.0Y-74.0
X101.56Y-49.681
X102.0Y-65.0
X102.079Y-24.884
X103.5Y-79.5
X103.883Y-40.837
X103.935Y-46.078
X104.68Y-52.355
X105.0Y-4.0
X105.011Y-69.428
X105.273Y-34.481
X105.443Y-86.244
X105.579Y-57.978
X106.0Y-70.5
X106.0Y-97.5
X106.0Y-7.969
X106.248Y-61.542
X106.646Y-30.945
X107.0Y-10.0
X107.179Y-103.851
X107.615Y-35.21
X108.5Y-76.0
X110.316Y-57.962
X110.5Y-64.5
X110.506Y-41.529
X111.0Y-4.5
X112.0Y-71.0
X112.5Y-99.5
X112.825Y-42.555
X113.0Y-10.5
X113.5Y-16.5
X114.0Y-78.5
X114.017Y-50.295
X115.218Y-51.42
X115.218Y-57.284
X115.958Y-41.835
X116.5Y-63.5
X116.825Y-38.598
X117.0Y-4.0
X117.0Y-48.5
X117.5Y-24.5
X118.0Y-69.5
X118.5Y-98.5
X119.0Y-82.0
X119.5Y-17.0
X120.0Y-9.5
X120.5Y-75.0
X120.762Y-2.833
X121.064Y-37.123
X121.5Y-44.0
X122.216Y-31.662
X122.5Y-103.0
X122.595Y-26.856
X122.721Y-13.232
X122.721Y-19.466
X123.5Y-4.0
X123.5Y-94.0
X124.0Y-36.0
X124.0Y-49.5
X124.0Y-56.0
X124.0Y-69.0
X124.5Y-79.5
X126.5Y-61.5
X126.635Y-25.551
X127.0Y-99.0
X127.06Y-16.8
X127.5Y-74.0
X128.0Y-8.0
X128.0Y-40.5
X128.5Y-105.0
X128.928Y-27.934
X129.5Y-46.5
X129.5Y-53.0
X129.5Y-83.0
X129.5Y-93.0
X130.0Y-66.5
X130.038Y-19.453
X130.831Y-18.677
X132.5Y-59.0
X132.5Y-77.5
X133.0Y-88.0
X133.0Y-98.0
X133.248Y-28.306
X133.5Y-37.5
X133.5Y-71.5
T4
X121.0Y-109.5
X123.0Y-109.5
T5
X2.22Y-75.016
X2.22Y-77.048
X2.22Y-79.08
X2.22Y-81.112
X4.0Y-74.0
X4.0Y-76.032
X4.0Y-78.064
X4.0Y-80.096
T6
X64.73Y-112.1
X67.27Y-112.1
X74.73Y-112.1
X77.27Y-112.1
T7
X25.0Y-19.24
X25.0Y-21.78
X25.0Y-24.32
X25.0Y-26.86
X25.0Y-29.4
X25.0Y-31.94
X25.0Y-34.48
X25.0Y-37.02
X25.0Y-39.56
X25.0Y-42.1
X25.0Y-44.64
X25.0Y-47.18
X25.0Y-49.72
X25.0Y-52.26
X60.0Y-4.08
X60.0Y-6.62
X60.0Y-9.16
X60.0Y-11.7
X60.0Y-14.24
X60.0Y-16.78
X60.0Y-19.32
X60.0Y-21.86
X60.0Y-24.4
X60.0Y-26.94
X60.0Y-29.48
X60.0Y-32.02
X60.0Y-34.56
X60.0Y-37.1
X60.0Y-39.64
X60.0Y-42.18
X60.0Y-44.72
X60.0Y-47.26
X60.0Y-49.8
X60.0Y-52.34
X60.0Y-54.88
X60.0Y-57.42
X60.0Y-59.96
X60.0Y-62.5
X61.5Y-71.0
X61.5Y-73.5
X61.5Y-76.0
X75.24Y-4.08
X75.24Y-6.62
X75.24Y-9.16
X75.24Y-11.7
X75.24Y-14.24
X75.24Y-16.78
X75.24Y-19.32
X75.24Y-21.86
X75.24Y-24.4
X75.24Y-26.94
X75.24Y-29.48
X75.24Y-32.02
X75.24Y-34.56
X75.24Y-37.1
X75.24Y-39.64
X75.24Y-42.18
X75.24Y-44.72
X75.24Y-47.26
X75.24Y-49.8
X75.24Y-52.34
X75.24Y-54.88
X75.24Y-57.42
X75.24Y-59.96
X75.24Y-62.5
X76.0Y-71.0
X76.0Y-76.0
T8
X43.75Y-71.25
X43.75Y-75.75
X50.25Y-71.25
X50.25Y-75.75
T9
X83.2Y-72.0
X83.2Y-75.0
X89.5Y-65.7
X89.5Y-81.3
X90.0Y-67.72
X92.0Y-80.48
X92.5Y-65.7
X97.86Y-77.25
X98.8Y-72.0
X98.8Y-75.0
T10
X14.57Y-98.0
X14.57Y-104.35
X14.57Y-110.7
X26.0Y-98.0
X26.0Y-104.35
X26.0Y-110.7
T11
X3.11Y-69.43
X3.11Y-85.69
T12
X12.8Y-5.2
X17.5Y-2.2
X17.5Y-8.2
T3
X35.68Y-1.85G85X35.68Y-1.25
G05
X35.68Y-6.28G85X35.68Y-5.18
G05
X44.32Y-1.85G85X44.32Y-1.25
G05
X44.32Y-6.28G85X44.32Y-5.18
G05
T7
X128.0Y-42.5G85X128.0Y-43.5
G05
X133.5Y-42.5G85X133.5Y-43.5
G05
X135.9Y-40.5G85X135.9Y-41.5
G05
T10
X68.35Y-67.9G85X69.65Y-67.9
G05
X68.35Y-79.1G85X69.65Y-79.1
G05
M30
