%TF.GenerationSoftware,KiCad,Pcbnew,10.0.4*%
%TF.CreationDate,2026-07-19T15:17:51-05:00*%
%TF.ProjectId,QuadPreRecorder,51756164-5072-4655-9265-636f72646572,A*%
%TF.SameCoordinates,Original*%
%TF.FileFunction,Soldermask,Top*%
%TF.FilePolarity,Negative*%
%FSLAX46Y46*%
G04 Gerber Fmt 4.6, Leading zero omitted, Abs format (unit mm)*
G04 Created by KiCad (PCBNEW 10.0.4) date 2026-07-19 15:17:51*
%MOMM*%
%LPD*%
G01*
G04 APERTURE LIST*
G04 Aperture macros list*
%AMRoundRect*
0 Rectangle with rounded corners*
0 $1 Rounding radius*
0 $2 $3 $4 $5 $6 $7 $8 $9 X,Y pos of 4 corners*
0 Add a 4 corners polygon primitive as box body*
4,1,4,$2,$3,$4,$5,$6,$7,$8,$9,$2,$3,0*
0 Add four circle primitives for the rounded corners*
1,1,$1+$1,$2,$3*
1,1,$1+$1,$4,$5*
1,1,$1+$1,$6,$7*
1,1,$1+$1,$8,$9*
0 Add four rect primitives between the rounded corners*
20,1,$1+$1,$2,$3,$4,$5,0*
20,1,$1+$1,$4,$5,$6,$7,0*
20,1,$1+$1,$6,$7,$8,$9,0*
20,1,$1+$1,$8,$9,$2,$3,0*%
G04 Aperture macros list end*
%ADD10RoundRect,0.200000X-0.200000X-0.275000X0.200000X-0.275000X0.200000X0.275000X-0.200000X0.275000X0*%
%ADD11RoundRect,0.200000X0.275000X-0.200000X0.275000X0.200000X-0.275000X0.200000X-0.275000X-0.200000X0*%
%ADD12RoundRect,0.250000X-1.000000X-0.650000X1.000000X-0.650000X1.000000X0.650000X-1.000000X0.650000X0*%
%ADD13O,1.800000X2.800000*%
%ADD14RoundRect,0.250000X-0.375000X-0.625000X0.375000X-0.625000X0.375000X0.625000X-0.375000X0.625000X0*%
%ADD15RoundRect,0.225000X0.250000X-0.225000X0.250000X0.225000X-0.250000X0.225000X-0.250000X-0.225000X0*%
%ADD16RoundRect,0.150000X-0.512500X-0.150000X0.512500X-0.150000X0.512500X0.150000X-0.512500X0.150000X0*%
%ADD17RoundRect,0.100000X-0.637500X-0.100000X0.637500X-0.100000X0.637500X0.100000X-0.637500X0.100000X0*%
%ADD18RoundRect,0.218750X-0.218750X-0.256250X0.218750X-0.256250X0.218750X0.256250X-0.218750X0.256250X0*%
%ADD19RoundRect,0.250000X-0.325000X-0.650000X0.325000X-0.650000X0.325000X0.650000X-0.325000X0.650000X0*%
%ADD20C,3.200000*%
%ADD21RoundRect,0.250000X-0.262500X-0.450000X0.262500X-0.450000X0.262500X0.450000X-0.262500X0.450000X0*%
%ADD22RoundRect,0.250000X0.650000X-0.325000X0.650000X0.325000X-0.650000X0.325000X-0.650000X-0.325000X0*%
%ADD23RoundRect,0.225000X-0.225000X-0.250000X0.225000X-0.250000X0.225000X0.250000X-0.225000X0.250000X0*%
%ADD24O,3.200000X1.900000*%
%ADD25R,1.700000X1.700000*%
%ADD26C,1.700000*%
%ADD27RoundRect,0.062500X-0.375000X-0.062500X0.375000X-0.062500X0.375000X0.062500X-0.375000X0.062500X0*%
%ADD28RoundRect,0.062500X-0.062500X-0.375000X0.062500X-0.375000X0.062500X0.375000X-0.062500X0.375000X0*%
%ADD29R,1.600000X1.600000*%
%ADD30RoundRect,0.250000X-0.250000X-0.475000X0.250000X-0.475000X0.250000X0.475000X-0.250000X0.475000X0*%
%ADD31RoundRect,0.075000X-0.662500X-0.075000X0.662500X-0.075000X0.662500X0.075000X-0.662500X0.075000X0*%
%ADD32RoundRect,0.112500X0.112500X-0.187500X0.112500X0.187500X-0.112500X0.187500X-0.112500X-0.187500X0*%
%ADD33RoundRect,0.150000X-0.825000X-0.150000X0.825000X-0.150000X0.825000X0.150000X-0.825000X0.150000X0*%
%ADD34C,2.000000*%
%ADD35RoundRect,0.250000X0.475000X-0.250000X0.475000X0.250000X-0.475000X0.250000X-0.475000X-0.250000X0*%
%ADD36C,1.600000*%
%ADD37RoundRect,0.125000X-0.687500X-0.125000X0.687500X-0.125000X0.687500X0.125000X-0.687500X0.125000X0*%
%ADD38RoundRect,0.450000X-0.450000X0.450000X-0.450000X-0.450000X0.450000X-0.450000X0.450000X0.450000X0*%
%ADD39C,1.800000*%
%ADD40RoundRect,0.250000X-1.000000X-0.900000X1.000000X-0.900000X1.000000X0.900000X-1.000000X0.900000X0*%
%ADD41R,2.000000X2.000000*%
%ADD42R,3.200000X2.000000*%
%ADD43O,2.200000X3.500000*%
%ADD44R,1.500000X2.500000*%
%ADD45O,1.500000X2.500000*%
%ADD46R,2.600000X2.600000*%
%ADD47C,2.600000*%
%ADD48RoundRect,0.250000X-1.500000X-0.550000X1.500000X-0.550000X1.500000X0.550000X-1.500000X0.550000X0*%
%ADD49RoundRect,0.250000X-0.250000X-1.650000X0.250000X-1.650000X0.250000X1.650000X-0.250000X1.650000X0*%
%ADD50R,1.800000X1.800000*%
%ADD51C,3.000000*%
G04 APERTURE END LIST*
D10*
%TO.C,R54*%
X68175000Y-8000000D03*
X69825000Y-8000000D03*
%TD*%
D11*
%TO.C,R21*%
X49000000Y-29325000D03*
X49000000Y-27675000D03*
%TD*%
%TO.C,R25*%
X49000000Y-41325000D03*
X49000000Y-39675000D03*
%TD*%
%TO.C,R20*%
X45000000Y-29325000D03*
X45000000Y-27675000D03*
%TD*%
%TO.C,R11*%
X30000000Y-29325000D03*
X30000000Y-27675000D03*
%TD*%
D12*
%TO.C,D3*%
X30000000Y-68000000D03*
X34000000Y-68000000D03*
%TD*%
D13*
%TO.C,J5*%
X96300000Y-68500000D03*
X104200000Y-66500000D03*
X101800000Y-68500000D03*
%TD*%
D14*
%TO.C,F1*%
X5600000Y-78000000D03*
X8400000Y-78000000D03*
%TD*%
D15*
%TO.C,C30*%
X82000000Y-29275000D03*
X82000000Y-27725000D03*
%TD*%
D11*
%TO.C,R10*%
X30000000Y-23325000D03*
X30000000Y-21675000D03*
%TD*%
D16*
%TO.C,U2*%
X68862500Y-51050000D03*
X68862500Y-52000000D03*
X68862500Y-52950000D03*
X71137500Y-52950000D03*
X71137500Y-51050000D03*
%TD*%
D15*
%TO.C,C14*%
X33000000Y-29275000D03*
X33000000Y-27725000D03*
%TD*%
D17*
%TO.C,U6*%
X60137500Y-29550000D03*
X60137500Y-30200000D03*
X60137500Y-30850000D03*
X60137500Y-31500000D03*
X60137500Y-32150000D03*
X60137500Y-32800000D03*
X60137500Y-33450000D03*
X65862500Y-33450000D03*
X65862500Y-32800000D03*
X65862500Y-32150000D03*
X65862500Y-31500000D03*
X65862500Y-30850000D03*
X65862500Y-30200000D03*
X65862500Y-29550000D03*
%TD*%
D18*
%TO.C,D5*%
X72212500Y-8000000D03*
X73787500Y-8000000D03*
%TD*%
D19*
%TO.C,C46*%
X37525000Y-68000000D03*
X40475000Y-68000000D03*
%TD*%
D11*
%TO.C,R8*%
X27000000Y-35325000D03*
X27000000Y-33675000D03*
%TD*%
%TO.C,R19*%
X49000000Y-23325000D03*
X49000000Y-21675000D03*
%TD*%
%TO.C,R13*%
X30000000Y-41325000D03*
X30000000Y-39675000D03*
%TD*%
D20*
%TO.C,H8*%
X87000000Y-63250000D03*
%TD*%
D21*
%TO.C,R56*%
X78087500Y-16000000D03*
X79912500Y-16000000D03*
%TD*%
D17*
%TO.C,U9*%
X50137500Y-52075000D03*
X50137500Y-52725000D03*
X50137500Y-53375000D03*
X50137500Y-54025000D03*
X50137500Y-54675000D03*
X50137500Y-55325000D03*
X50137500Y-55975000D03*
X50137500Y-56625000D03*
X50137500Y-57275000D03*
X50137500Y-57925000D03*
X55862500Y-57925000D03*
X55862500Y-57275000D03*
X55862500Y-56625000D03*
X55862500Y-55975000D03*
X55862500Y-55325000D03*
X55862500Y-54675000D03*
X55862500Y-54025000D03*
X55862500Y-53375000D03*
X55862500Y-52725000D03*
X55862500Y-52075000D03*
%TD*%
D11*
%TO.C,R35*%
X79000000Y-29325000D03*
X79000000Y-27675000D03*
%TD*%
D22*
%TO.C,C19*%
X37000000Y-35975000D03*
X37000000Y-33025000D03*
%TD*%
D23*
%TO.C,C54*%
X56725000Y-48000000D03*
X58275000Y-48000000D03*
%TD*%
D24*
%TO.C,SW2*%
X27000000Y-7000000D03*
X39500000Y-7000000D03*
X27000000Y-12000000D03*
X39500000Y-12000000D03*
%TD*%
D10*
%TO.C,R55*%
X75175000Y-8000000D03*
X76825000Y-8000000D03*
%TD*%
%TO.C,R42*%
X16175000Y-17000000D03*
X17825000Y-17000000D03*
%TD*%
D25*
%TO.C,J3*%
X75000000Y-19000000D03*
D26*
X72460000Y-19000000D03*
X69920000Y-19000000D03*
X67380000Y-19000000D03*
X64840000Y-19000000D03*
X62300000Y-19000000D03*
X59760000Y-19000000D03*
X57220000Y-19000000D03*
X54680000Y-19000000D03*
X52140000Y-19000000D03*
X49600000Y-19000000D03*
X47060000Y-19000000D03*
X44520000Y-19000000D03*
X41980000Y-19000000D03*
%TD*%
D27*
%TO.C,U10*%
X86562500Y-74250000D03*
X86562500Y-74750000D03*
X86562500Y-75250000D03*
X86562500Y-75750000D03*
D28*
X87250000Y-76437500D03*
X87750000Y-76437500D03*
X88250000Y-76437500D03*
X88750000Y-76437500D03*
D27*
X89437500Y-75750000D03*
X89437500Y-75250000D03*
X89437500Y-74750000D03*
X89437500Y-74250000D03*
D28*
X88750000Y-73562500D03*
X88250000Y-73562500D03*
X87750000Y-73562500D03*
X87250000Y-73562500D03*
D29*
X88000000Y-75000000D03*
%TD*%
D10*
%TO.C,R64*%
X79175000Y-68000000D03*
X80825000Y-68000000D03*
%TD*%
D30*
%TO.C,C8*%
X71550000Y-55000000D03*
X73450000Y-55000000D03*
%TD*%
D22*
%TO.C,C17*%
X37000000Y-23975000D03*
X37000000Y-21025000D03*
%TD*%
%TO.C,C27*%
X75000000Y-35975000D03*
X75000000Y-33025000D03*
%TD*%
D23*
%TO.C,C56*%
X46225000Y-59500000D03*
X47775000Y-59500000D03*
%TD*%
D31*
%TO.C,U7*%
X87137500Y-28000000D03*
X87137500Y-28500000D03*
X87137500Y-29000000D03*
X87137500Y-29500000D03*
X87137500Y-30000000D03*
X87137500Y-30500000D03*
X87137500Y-31000000D03*
X87137500Y-31500000D03*
X87137500Y-32000000D03*
X87137500Y-32500000D03*
X87137500Y-33000000D03*
X87137500Y-33500000D03*
X87137500Y-34000000D03*
X87137500Y-34500000D03*
X87137500Y-35000000D03*
X92862500Y-35000000D03*
X92862500Y-34500000D03*
X92862500Y-34000000D03*
X92862500Y-33500000D03*
X92862500Y-33000000D03*
X92862500Y-32500000D03*
X92862500Y-32000000D03*
X92862500Y-31500000D03*
X92862500Y-31000000D03*
X92862500Y-30500000D03*
X92862500Y-30000000D03*
X92862500Y-29500000D03*
X92862500Y-29000000D03*
X92862500Y-28500000D03*
X92862500Y-28000000D03*
%TD*%
D30*
%TO.C,C2*%
X19550000Y-73500000D03*
X21450000Y-73500000D03*
%TD*%
D23*
%TO.C,C64*%
X50225000Y-59500000D03*
X51775000Y-59500000D03*
%TD*%
D32*
%TO.C,D9*%
X23500000Y-41550000D03*
X23500000Y-39450000D03*
%TD*%
D33*
%TO.C,U3*%
X32525000Y-49095000D03*
X32525000Y-50365000D03*
X32525000Y-51635000D03*
X32525000Y-52905000D03*
X37475000Y-52905000D03*
X37475000Y-51635000D03*
X37475000Y-50365000D03*
X37475000Y-49095000D03*
%TD*%
D23*
%TO.C,C4*%
X12225000Y-73000000D03*
X13775000Y-73000000D03*
%TD*%
D30*
%TO.C,C9*%
X31550000Y-56000000D03*
X33450000Y-56000000D03*
%TD*%
D12*
%TO.C,D1*%
X12000000Y-78000000D03*
X16000000Y-78000000D03*
%TD*%
D34*
%TO.C,FID1*%
X80000000Y-5000000D03*
%TD*%
D32*
%TO.C,D7*%
X23500000Y-29550000D03*
X23500000Y-27450000D03*
%TD*%
D20*
%TO.C,H2*%
X92000000Y-4000000D03*
%TD*%
D35*
%TO.C,C65*%
X92000000Y-77950000D03*
X92000000Y-76050000D03*
%TD*%
D20*
%TO.C,H7*%
X9000000Y-63250000D03*
%TD*%
D32*
%TO.C,D8*%
X23500000Y-35550000D03*
X23500000Y-33450000D03*
%TD*%
D19*
%TO.C,C10*%
X35525000Y-56000000D03*
X38475000Y-56000000D03*
%TD*%
D30*
%TO.C,C51*%
X46050000Y-49000000D03*
X47950000Y-49000000D03*
%TD*%
D29*
%TO.C,J2*%
X1800000Y-37400000D03*
D36*
X1800000Y-40170000D03*
X1800000Y-42940000D03*
X1800000Y-45710000D03*
X1800000Y-48480000D03*
X4640000Y-38785000D03*
X4640000Y-41555000D03*
X4640000Y-44325000D03*
X4640000Y-47095000D03*
%TD*%
D37*
%TO.C,U1*%
X5887500Y-67525000D03*
X5887500Y-68175000D03*
X5887500Y-68825000D03*
X5887500Y-69475000D03*
X10112500Y-69475000D03*
X10112500Y-68825000D03*
X10112500Y-68175000D03*
X10112500Y-67525000D03*
%TD*%
D22*
%TO.C,C18*%
X37000000Y-29975000D03*
X37000000Y-27025000D03*
%TD*%
D15*
%TO.C,C31*%
X82000000Y-35275000D03*
X82000000Y-33725000D03*
%TD*%
D19*
%TO.C,C55*%
X60025000Y-48000000D03*
X62975000Y-48000000D03*
%TD*%
D38*
%TO.C,RV1*%
X102000000Y-5000000D03*
D39*
X104500000Y-5000000D03*
X107000000Y-5000000D03*
X102000000Y-2500000D03*
X104500000Y-2500000D03*
X107000000Y-2500000D03*
%TD*%
D40*
%TO.C,D2*%
X19350000Y-78000000D03*
X23650000Y-78000000D03*
%TD*%
D19*
%TO.C,C5*%
X18525000Y-68500000D03*
X21475000Y-68500000D03*
%TD*%
D11*
%TO.C,R14*%
X41000000Y-23325000D03*
X41000000Y-21675000D03*
%TD*%
D41*
%TO.C,SW3*%
X46000000Y-7000000D03*
D34*
X46000000Y-12000000D03*
X46000000Y-9500000D03*
D42*
X53500000Y-3900000D03*
X53500000Y-15100000D03*
D34*
X60500000Y-12000000D03*
X60500000Y-7000000D03*
%TD*%
D22*
%TO.C,C20*%
X37000000Y-41975000D03*
X37000000Y-39025000D03*
%TD*%
D23*
%TO.C,C33*%
X22225000Y-17000000D03*
X23775000Y-17000000D03*
%TD*%
D11*
%TO.C,R22*%
X45000000Y-35325000D03*
X45000000Y-33675000D03*
%TD*%
D35*
%TO.C,C60*%
X83500000Y-77950000D03*
X83500000Y-76050000D03*
%TD*%
D11*
%TO.C,R4*%
X24000000Y-52825000D03*
X24000000Y-51175000D03*
%TD*%
D32*
%TO.C,D6*%
X23500000Y-23550000D03*
X23500000Y-21450000D03*
%TD*%
D10*
%TO.C,R65*%
X86675000Y-80000000D03*
X88325000Y-80000000D03*
%TD*%
D20*
%TO.C,H6*%
X87000000Y-21250000D03*
%TD*%
D10*
%TO.C,R3*%
X15675000Y-73000000D03*
X17325000Y-73000000D03*
%TD*%
D19*
%TO.C,C3*%
X24525000Y-72500000D03*
X27475000Y-72500000D03*
%TD*%
D35*
%TO.C,C12*%
X27000000Y-52950000D03*
X27000000Y-51050000D03*
%TD*%
D23*
%TO.C,C11*%
X40725000Y-56000000D03*
X42275000Y-56000000D03*
%TD*%
D30*
%TO.C,C58*%
X86050000Y-69000000D03*
X87950000Y-69000000D03*
%TD*%
D11*
%TO.C,R18*%
X45000000Y-23325000D03*
X45000000Y-21675000D03*
%TD*%
D15*
%TO.C,C16*%
X33000000Y-41275000D03*
X33000000Y-39725000D03*
%TD*%
D19*
%TO.C,C6*%
X23525000Y-68500000D03*
X26475000Y-68500000D03*
%TD*%
D11*
%TO.C,R15*%
X41000000Y-29325000D03*
X41000000Y-27675000D03*
%TD*%
D22*
%TO.C,C26*%
X75000000Y-29975000D03*
X75000000Y-27025000D03*
%TD*%
D30*
%TO.C,C7*%
X65550000Y-55000000D03*
X67450000Y-55000000D03*
%TD*%
D15*
%TO.C,C29*%
X82000000Y-23275000D03*
X82000000Y-21725000D03*
%TD*%
D10*
%TO.C,R2*%
X9175000Y-73000000D03*
X10825000Y-73000000D03*
%TD*%
D11*
%TO.C,R9*%
X27000000Y-41325000D03*
X27000000Y-39675000D03*
%TD*%
D30*
%TO.C,C53*%
X53050000Y-48000000D03*
X54950000Y-48000000D03*
%TD*%
D11*
%TO.C,R7*%
X27000000Y-29325000D03*
X27000000Y-27675000D03*
%TD*%
D15*
%TO.C,C15*%
X33000000Y-35275000D03*
X33000000Y-33725000D03*
%TD*%
D11*
%TO.C,R34*%
X79000000Y-23325000D03*
X79000000Y-21675000D03*
%TD*%
%TO.C,R6*%
X27000000Y-23325000D03*
X27000000Y-21675000D03*
%TD*%
%TO.C,R12*%
X30000000Y-35325000D03*
X30000000Y-33675000D03*
%TD*%
D10*
%TO.C,R43*%
X19175000Y-17000000D03*
X20825000Y-17000000D03*
%TD*%
D11*
%TO.C,R16*%
X41000000Y-35325000D03*
X41000000Y-33675000D03*
%TD*%
D30*
%TO.C,C52*%
X49550000Y-48000000D03*
X51450000Y-48000000D03*
%TD*%
D34*
%TO.C,FID3*%
X98000000Y-50000000D03*
%TD*%
D18*
%TO.C,D4*%
X65212500Y-8000000D03*
X66787500Y-8000000D03*
%TD*%
D11*
%TO.C,R37*%
X79000000Y-41325000D03*
X79000000Y-39675000D03*
%TD*%
D17*
%TO.C,U5*%
X51137500Y-35225000D03*
X51137500Y-35875000D03*
X51137500Y-36525000D03*
X51137500Y-37175000D03*
X51137500Y-37825000D03*
X51137500Y-38475000D03*
X51137500Y-39125000D03*
X51137500Y-39775000D03*
X56862500Y-39775000D03*
X56862500Y-39125000D03*
X56862500Y-38475000D03*
X56862500Y-37825000D03*
X56862500Y-37175000D03*
X56862500Y-36525000D03*
X56862500Y-35875000D03*
X56862500Y-35225000D03*
%TD*%
D43*
%TO.C,SW1*%
X9900000Y-8000000D03*
X18100000Y-8000000D03*
D44*
X12000000Y-8000000D03*
D45*
X14000000Y-8000000D03*
X16000000Y-8000000D03*
%TD*%
D35*
%TO.C,C59*%
X83500000Y-73950000D03*
X83500000Y-72050000D03*
%TD*%
D10*
%TO.C,R66*%
X90175000Y-80000000D03*
X91825000Y-80000000D03*
%TD*%
D15*
%TO.C,C32*%
X82000000Y-41275000D03*
X82000000Y-39725000D03*
%TD*%
D46*
%TO.C,J1*%
X108000000Y-77000000D03*
D47*
X102000000Y-77000000D03*
X105000000Y-81700000D03*
%TD*%
D11*
%TO.C,R5*%
X30000000Y-52825000D03*
X30000000Y-51175000D03*
%TD*%
%TO.C,R23*%
X49000000Y-35325000D03*
X49000000Y-33675000D03*
%TD*%
D35*
%TO.C,C61*%
X92000000Y-73950000D03*
X92000000Y-72050000D03*
%TD*%
D11*
%TO.C,R36*%
X79000000Y-35325000D03*
X79000000Y-33675000D03*
%TD*%
D17*
%TO.C,U4*%
X51137500Y-23225000D03*
X51137500Y-23875000D03*
X51137500Y-24525000D03*
X51137500Y-25175000D03*
X51137500Y-25825000D03*
X51137500Y-26475000D03*
X51137500Y-27125000D03*
X51137500Y-27775000D03*
X56862500Y-27775000D03*
X56862500Y-27125000D03*
X56862500Y-26475000D03*
X56862500Y-25825000D03*
X56862500Y-25175000D03*
X56862500Y-24525000D03*
X56862500Y-23875000D03*
X56862500Y-23225000D03*
%TD*%
D20*
%TO.C,H1*%
X4000000Y-4000000D03*
%TD*%
D30*
%TO.C,C57*%
X82550000Y-69000000D03*
X84450000Y-69000000D03*
%TD*%
D22*
%TO.C,C28*%
X75000000Y-41975000D03*
X75000000Y-39025000D03*
%TD*%
D15*
%TO.C,C13*%
X33000000Y-23275000D03*
X33000000Y-21725000D03*
%TD*%
D11*
%TO.C,R17*%
X41000000Y-41325000D03*
X41000000Y-39675000D03*
%TD*%
D48*
%TO.C,C1*%
X31300000Y-76000000D03*
X36700000Y-76000000D03*
%TD*%
D11*
%TO.C,R24*%
X45000000Y-41325000D03*
X45000000Y-39675000D03*
%TD*%
D34*
%TO.C,FID2*%
X106000000Y-34000000D03*
%TD*%
D10*
%TO.C,R63*%
X74175000Y-58500000D03*
X75825000Y-58500000D03*
%TD*%
%TO.C,R1*%
X6175000Y-73000000D03*
X7825000Y-73000000D03*
%TD*%
D49*
%TO.C,L1*%
X13300000Y-68500000D03*
X15700000Y-68500000D03*
%TD*%
D20*
%TO.C,H5*%
X9000000Y-21250000D03*
%TD*%
D39*
%TO.C,U8*%
X26540000Y-63000000D03*
X29080000Y-63000000D03*
X31620000Y-63000000D03*
X34160000Y-63000000D03*
X59560000Y-63000000D03*
X82420000Y-80780000D03*
X36700000Y-63000000D03*
X39240000Y-63000000D03*
X41780000Y-63000000D03*
X44320000Y-63000000D03*
X46860000Y-63000000D03*
X49400000Y-63000000D03*
X51940000Y-63000000D03*
X54480000Y-63000000D03*
X57020000Y-63000000D03*
X54480000Y-80780000D03*
X51940000Y-80780000D03*
X49400000Y-80780000D03*
X46860000Y-80780000D03*
X44320000Y-80780000D03*
X41780000Y-80780000D03*
X39240000Y-80780000D03*
X36700000Y-80780000D03*
X34160000Y-80780000D03*
X31620000Y-80780000D03*
X29080000Y-80780000D03*
X62100000Y-63000000D03*
X64640000Y-63000000D03*
X67180000Y-63000000D03*
X69720000Y-63000000D03*
X72260000Y-63000000D03*
X74800000Y-63000000D03*
X77340000Y-63000000D03*
X79880000Y-63000000D03*
X82420000Y-63000000D03*
X77340000Y-80780000D03*
X74800000Y-80780000D03*
X72260000Y-80780000D03*
X69720000Y-80780000D03*
X67180000Y-80780000D03*
X64640000Y-80780000D03*
X62100000Y-80780000D03*
X59560000Y-80780000D03*
X57020000Y-80780000D03*
D50*
X24000000Y-63000000D03*
D39*
X26540000Y-80780000D03*
X79880000Y-80780000D03*
X24000000Y-80780000D03*
%TD*%
D51*
%TO.C,J4*%
X86650000Y-54370000D03*
D34*
X93000000Y-45070000D03*
X93000000Y-56500000D03*
D51*
X89850000Y-56500000D03*
X89850000Y-45070000D03*
X96200000Y-56500000D03*
X96200000Y-45070000D03*
X83500000Y-56500000D03*
X83500000Y-45070000D03*
%TD*%
M02*
