%TF.GenerationSoftware,KiCad,Pcbnew,10.0.5*%
%TF.CreationDate,2026-08-01T18:54:08-05:00*%
%TF.ProjectId,QuadPreRecorder_rev3_4layer_routed,51756164-5072-4655-9265-636f72646572,B*%
%TF.SameCoordinates,Original*%
%TF.FileFunction,Soldermask,Top*%
%TF.FilePolarity,Negative*%
%FSLAX46Y46*%
G04 Gerber Fmt 4.6, Leading zero omitted, Abs format (unit mm)*
G04 Created by KiCad (PCBNEW 10.0.5) date 2026-08-01 18:54:08*
%MOMM*%
%LPD*%
G01*
G04 APERTURE LIST*
G04 Aperture macros list*
%AMRoundRect*
0 Rectangle with rounded corners*
0 $1 Rounding radius*
0 $2 $3 $4 $5 $6 $7 $8 $9 X,Y pos of 4 corners*
0 Add a 4 corners polygon primitive as box body*
4,1,4,$2,$3,$4,$5,$6,$7,$8,$9,$2,$3,0*
0 Add four circle primitives for the rounded corners*
1,1,$1+$1,$2,$3*
1,1,$1+$1,$4,$5*
1,1,$1+$1,$6,$7*
1,1,$1+$1,$8,$9*
0 Add four rect primitives between the rounded corners*
20,1,$1+$1,$2,$3,$4,$5,0*
20,1,$1+$1,$4,$5,$6,$7,0*
20,1,$1+$1,$6,$7,$8,$9,0*
20,1,$1+$1,$8,$9,$2,$3,0*%
G04 Aperture macros list end*
%ADD10RoundRect,0.250000X0.900000X-1.000000X0.900000X1.000000X-0.900000X1.000000X-0.900000X-1.000000X0*%
%ADD11RoundRect,0.200000X-0.200000X-0.275000X0.200000X-0.275000X0.200000X0.275000X-0.200000X0.275000X0*%
%ADD12RoundRect,0.100000X-0.637500X-0.100000X0.637500X-0.100000X0.637500X0.100000X-0.637500X0.100000X0*%
%ADD13C,2.800000*%
%ADD14RoundRect,0.200000X0.275000X-0.200000X0.275000X0.200000X-0.275000X0.200000X-0.275000X-0.200000X0*%
%ADD15RoundRect,0.250000X-0.325000X-0.650000X0.325000X-0.650000X0.325000X0.650000X-0.325000X0.650000X0*%
%ADD16RoundRect,0.225000X-0.225000X-0.250000X0.225000X-0.250000X0.225000X0.250000X-0.225000X0.250000X0*%
%ADD17RoundRect,0.250000X0.650000X-1.000000X0.650000X1.000000X-0.650000X1.000000X-0.650000X-1.000000X0*%
%ADD18RoundRect,0.225000X0.250000X-0.225000X0.250000X0.225000X-0.250000X0.225000X-0.250000X-0.225000X0*%
%ADD19RoundRect,0.250000X-0.250000X-0.475000X0.250000X-0.475000X0.250000X0.475000X-0.250000X0.475000X0*%
%ADD20RoundRect,0.112500X0.112500X-0.187500X0.112500X0.187500X-0.112500X0.187500X-0.112500X-0.187500X0*%
%ADD21RoundRect,0.250000X-0.262500X-0.450000X0.262500X-0.450000X0.262500X0.450000X-0.262500X0.450000X0*%
%ADD22R,1.700000X1.700000*%
%ADD23C,1.700000*%
%ADD24C,2.049999*%
%ADD25O,1.800000X2.700000*%
%ADD26RoundRect,0.218750X-0.218750X-0.256250X0.218750X-0.256250X0.218750X0.256250X-0.218750X0.256250X0*%
%ADD27C,2.000000*%
%ADD28RoundRect,0.250000X0.650000X-0.325000X0.650000X0.325000X-0.650000X0.325000X-0.650000X-0.325000X0*%
%ADD29RoundRect,0.150000X-0.825000X-0.150000X0.825000X-0.150000X0.825000X0.150000X-0.825000X0.150000X0*%
%ADD30C,3.200000*%
%ADD31RoundRect,0.062500X-0.375000X-0.062500X0.375000X-0.062500X0.375000X0.062500X-0.375000X0.062500X0*%
%ADD32RoundRect,0.062500X-0.062500X-0.375000X0.062500X-0.375000X0.062500X0.375000X-0.062500X0.375000X0*%
%ADD33R,1.600000X1.600000*%
%ADD34O,1.800000X2.800000*%
%ADD35RoundRect,0.250000X0.625000X-0.375000X0.625000X0.375000X-0.625000X0.375000X-0.625000X-0.375000X0*%
%ADD36R,2.600000X2.600000*%
%ADD37C,2.600000*%
%ADD38C,3.250000*%
%ADD39R,1.500000X1.500000*%
%ADD40C,1.500000*%
%ADD41C,2.300000*%
%ADD42RoundRect,0.125000X-0.687500X-0.125000X0.687500X-0.125000X0.687500X0.125000X-0.687500X0.125000X0*%
%ADD43RoundRect,0.250000X-0.250000X-1.650000X0.250000X-1.650000X0.250000X1.650000X-0.250000X1.650000X0*%
%ADD44RoundRect,0.250000X-1.500000X-0.550000X1.500000X-0.550000X1.500000X0.550000X-1.500000X0.550000X0*%
%ADD45R,2.000000X2.000000*%
%ADD46R,3.200000X2.000000*%
%ADD47O,3.200000X1.900000*%
%ADD48RoundRect,0.075000X-0.662500X-0.075000X0.662500X-0.075000X0.662500X0.075000X-0.662500X0.075000X0*%
%ADD49RoundRect,0.450000X-0.450000X-0.450000X0.450000X-0.450000X0.450000X0.450000X-0.450000X0.450000X0*%
%ADD50C,1.800000*%
%ADD51C,3.000000*%
%ADD52R,1.800000X1.800000*%
G04 APERTURE END LIST*
D10*
%TO.C,D2*%
X96000000Y-94650000D03*
X96000000Y-90350000D03*
%TD*%
D11*
%TO.C,R63*%
X97675000Y-58000000D03*
X99325000Y-58000000D03*
%TD*%
D12*
%TO.C,U6*%
X49137500Y-48050000D03*
X49137500Y-48700000D03*
X49137500Y-49350000D03*
X49137500Y-50000000D03*
X49137500Y-50650000D03*
X49137500Y-51300000D03*
X49137500Y-51950000D03*
X54862500Y-51950000D03*
X54862500Y-51300000D03*
X54862500Y-50650000D03*
X54862500Y-50000000D03*
X54862500Y-49350000D03*
X54862500Y-48700000D03*
X54862500Y-48050000D03*
%TD*%
%TO.C,U5*%
X37137500Y-53725000D03*
X37137500Y-54375000D03*
X37137500Y-55025000D03*
X37137500Y-55675000D03*
X37137500Y-56325000D03*
X37137500Y-56975000D03*
X37137500Y-57625000D03*
X37137500Y-58275000D03*
X42862500Y-58275000D03*
X42862500Y-57625000D03*
X42862500Y-56975000D03*
X42862500Y-56325000D03*
X42862500Y-55675000D03*
X42862500Y-55025000D03*
X42862500Y-54375000D03*
X42862500Y-53725000D03*
%TD*%
D13*
%TO.C,SW1*%
X14900000Y-40000000D03*
X18710000Y-40000000D03*
X22520000Y-40000000D03*
X2200000Y-37460000D03*
X2200000Y-42540000D03*
%TD*%
D14*
%TO.C,R9*%
X30000000Y-104825000D03*
X30000000Y-103175000D03*
%TD*%
%TO.C,R8*%
X30000000Y-98825000D03*
X30000000Y-97175000D03*
%TD*%
D15*
%TO.C,C3*%
X112525000Y-92500000D03*
X115475000Y-92500000D03*
%TD*%
D11*
%TO.C,R5*%
X14175000Y-64000000D03*
X15825000Y-64000000D03*
%TD*%
%TO.C,R68*%
X18675000Y-52000000D03*
X20325000Y-52000000D03*
%TD*%
D16*
%TO.C,C4*%
X112225000Y-84000000D03*
X113775000Y-84000000D03*
%TD*%
D17*
%TO.C,D1*%
X96000000Y-102000000D03*
X96000000Y-98000000D03*
%TD*%
D18*
%TO.C,C31*%
X82000000Y-98775000D03*
X82000000Y-97225000D03*
%TD*%
D19*
%TO.C,C57*%
X122050000Y-76000000D03*
X123950000Y-76000000D03*
%TD*%
D14*
%TO.C,R34*%
X78000000Y-86825000D03*
X78000000Y-85175000D03*
%TD*%
D16*
%TO.C,C68*%
X97725000Y-55000000D03*
X99275000Y-55000000D03*
%TD*%
D20*
%TO.C,D6*%
X24000000Y-69050000D03*
X24000000Y-66950000D03*
%TD*%
D21*
%TO.C,R56*%
X87087500Y-57000000D03*
X88912500Y-57000000D03*
%TD*%
D22*
%TO.C,J3*%
X113350000Y-63000000D03*
D23*
X110810000Y-63000000D03*
X108270000Y-63000000D03*
X105730000Y-63000000D03*
X103190000Y-63000000D03*
X100650000Y-63000000D03*
X98110000Y-63000000D03*
X95570000Y-63000000D03*
X93030000Y-63000000D03*
X90490000Y-63000000D03*
X87950000Y-63000000D03*
X85410000Y-63000000D03*
X82870000Y-63000000D03*
X80330000Y-63000000D03*
%TD*%
D24*
%TO.C,SW4*%
X87750000Y-68350000D03*
D25*
X87750000Y-73500000D03*
D24*
X87750000Y-78650000D03*
X94250000Y-78650000D03*
D25*
X94250000Y-73500000D03*
D24*
X94250000Y-68350000D03*
%TD*%
D16*
%TO.C,C59*%
X105225000Y-52000000D03*
X106775000Y-52000000D03*
%TD*%
D26*
%TO.C,D5*%
X73212500Y-108000000D03*
X74787500Y-108000000D03*
%TD*%
D11*
%TO.C,R4*%
X5175000Y-64000000D03*
X6825000Y-64000000D03*
%TD*%
D14*
%TO.C,R36*%
X78000000Y-98825000D03*
X78000000Y-97175000D03*
%TD*%
D11*
%TO.C,R54*%
X69175000Y-108000000D03*
X70825000Y-108000000D03*
%TD*%
D19*
%TO.C,C2*%
X107050000Y-92500000D03*
X108950000Y-92500000D03*
%TD*%
D20*
%TO.C,D7*%
X24000000Y-73050000D03*
X24000000Y-70950000D03*
%TD*%
D27*
%TO.C,FID2*%
X130000000Y-60000000D03*
%TD*%
D12*
%TO.C,U4*%
X37137500Y-41725000D03*
X37137500Y-42375000D03*
X37137500Y-43025000D03*
X37137500Y-43675000D03*
X37137500Y-44325000D03*
X37137500Y-44975000D03*
X37137500Y-45625000D03*
X37137500Y-46275000D03*
X42862500Y-46275000D03*
X42862500Y-45625000D03*
X42862500Y-44975000D03*
X42862500Y-44325000D03*
X42862500Y-43675000D03*
X42862500Y-43025000D03*
X42862500Y-42375000D03*
X42862500Y-41725000D03*
%TD*%
D11*
%TO.C,R3*%
X116175000Y-84000000D03*
X117825000Y-84000000D03*
%TD*%
%TO.C,R55*%
X77175000Y-108000000D03*
X78825000Y-108000000D03*
%TD*%
D14*
%TO.C,R6*%
X30000000Y-86825000D03*
X30000000Y-85175000D03*
%TD*%
%TO.C,R37*%
X78000000Y-104825000D03*
X78000000Y-103175000D03*
%TD*%
D15*
%TO.C,C5*%
X115525000Y-88000000D03*
X118475000Y-88000000D03*
%TD*%
D19*
%TO.C,C53*%
X97550000Y-43000000D03*
X99450000Y-43000000D03*
%TD*%
%TO.C,C51*%
X90050000Y-46000000D03*
X91950000Y-46000000D03*
%TD*%
D28*
%TO.C,C27*%
X74000000Y-99475000D03*
X74000000Y-96525000D03*
%TD*%
D29*
%TO.C,U3*%
X31525000Y-24095000D03*
X31525000Y-25365000D03*
X31525000Y-26635000D03*
X31525000Y-27905000D03*
X36475000Y-27905000D03*
X36475000Y-26635000D03*
X36475000Y-25365000D03*
X36475000Y-24095000D03*
%TD*%
D18*
%TO.C,C29*%
X82000000Y-86775000D03*
X82000000Y-85225000D03*
%TD*%
D30*
%TO.C,H8*%
X118800000Y-61840000D03*
%TD*%
D11*
%TO.C,R42*%
X5175000Y-52000000D03*
X6825000Y-52000000D03*
%TD*%
D20*
%TO.C,D9*%
X24000000Y-81050000D03*
X24000000Y-78950000D03*
%TD*%
D16*
%TO.C,C58*%
X122225000Y-79500000D03*
X123775000Y-79500000D03*
%TD*%
D14*
%TO.C,R11*%
X34000000Y-92825000D03*
X34000000Y-91175000D03*
%TD*%
D11*
%TO.C,R1*%
X104175000Y-84000000D03*
X105825000Y-84000000D03*
%TD*%
D30*
%TO.C,H7*%
X25500000Y-61840000D03*
%TD*%
D14*
%TO.C,R20*%
X50000000Y-92825000D03*
X50000000Y-91175000D03*
%TD*%
%TO.C,R21*%
X54000000Y-92825000D03*
X54000000Y-91175000D03*
%TD*%
D20*
%TO.C,D8*%
X24000000Y-77050000D03*
X24000000Y-74950000D03*
%TD*%
D27*
%TO.C,FID1*%
X10000000Y-8000000D03*
%TD*%
D11*
%TO.C,R64*%
X107175000Y-48000000D03*
X108825000Y-48000000D03*
%TD*%
%TO.C,R67*%
X27175000Y-80000000D03*
X28825000Y-80000000D03*
%TD*%
D26*
%TO.C,D4*%
X65212500Y-108000000D03*
X66787500Y-108000000D03*
%TD*%
D14*
%TO.C,R18*%
X50000000Y-86825000D03*
X50000000Y-85175000D03*
%TD*%
D30*
%TO.C,H6*%
X118800000Y-10500000D03*
%TD*%
D14*
%TO.C,R23*%
X54000000Y-98825000D03*
X54000000Y-97175000D03*
%TD*%
D11*
%TO.C,R66*%
X124175000Y-67500000D03*
X125825000Y-67500000D03*
%TD*%
D28*
%TO.C,C26*%
X74000000Y-93475000D03*
X74000000Y-90525000D03*
%TD*%
%TO.C,C20*%
X42000000Y-105475000D03*
X42000000Y-102525000D03*
%TD*%
D19*
%TO.C,C12*%
X9550000Y-64000000D03*
X11450000Y-64000000D03*
%TD*%
D14*
%TO.C,R25*%
X54000000Y-104825000D03*
X54000000Y-103175000D03*
%TD*%
%TO.C,R22*%
X50000000Y-98825000D03*
X50000000Y-97175000D03*
%TD*%
D18*
%TO.C,C16*%
X38000000Y-104775000D03*
X38000000Y-103225000D03*
%TD*%
D31*
%TO.C,U10*%
X110562500Y-55250000D03*
X110562500Y-55750000D03*
X110562500Y-56250000D03*
X110562500Y-56750000D03*
D32*
X111250000Y-57437500D03*
X111750000Y-57437500D03*
X112250000Y-57437500D03*
X112750000Y-57437500D03*
D31*
X113437500Y-56750000D03*
X113437500Y-56250000D03*
X113437500Y-55750000D03*
X113437500Y-55250000D03*
D32*
X112750000Y-54562500D03*
X112250000Y-54562500D03*
X111750000Y-54562500D03*
X111250000Y-54562500D03*
D33*
X112000000Y-56000000D03*
%TD*%
D16*
%TO.C,C60*%
X105225000Y-58500000D03*
X106775000Y-58500000D03*
%TD*%
D15*
%TO.C,C6*%
X121525000Y-88000000D03*
X124475000Y-88000000D03*
%TD*%
D16*
%TO.C,C54*%
X101225000Y-43000000D03*
X102775000Y-43000000D03*
%TD*%
%TO.C,C65*%
X116225000Y-52000000D03*
X117775000Y-52000000D03*
%TD*%
D34*
%TO.C,J5*%
X125600000Y-43000000D03*
X133500000Y-41000000D03*
X131100000Y-43000000D03*
%TD*%
D16*
%TO.C,C67*%
X94225000Y-55000000D03*
X95775000Y-55000000D03*
%TD*%
D11*
%TO.C,R62*%
X94175000Y-58000000D03*
X95825000Y-58000000D03*
%TD*%
D14*
%TO.C,R13*%
X34000000Y-104825000D03*
X34000000Y-103175000D03*
%TD*%
D19*
%TO.C,C52*%
X94050000Y-43000000D03*
X95950000Y-43000000D03*
%TD*%
D11*
%TO.C,R2*%
X108175000Y-84000000D03*
X109825000Y-84000000D03*
%TD*%
D14*
%TO.C,R17*%
X46000000Y-104825000D03*
X46000000Y-103175000D03*
%TD*%
D35*
%TO.C,F1*%
X96000000Y-108400000D03*
X96000000Y-105600000D03*
%TD*%
D11*
%TO.C,R65*%
X124175000Y-64000000D03*
X125825000Y-64000000D03*
%TD*%
D36*
%TO.C,J1*%
X108000000Y-105800000D03*
D37*
X108000000Y-111800000D03*
X112700000Y-108800000D03*
%TD*%
D16*
%TO.C,C33*%
X14225000Y-52000000D03*
X15775000Y-52000000D03*
%TD*%
D28*
%TO.C,C19*%
X42000000Y-99475000D03*
X42000000Y-96525000D03*
%TD*%
D27*
%TO.C,FID3*%
X50000000Y-110000000D03*
%TD*%
D16*
%TO.C,C56*%
X90225000Y-53000000D03*
X91775000Y-53000000D03*
%TD*%
%TO.C,C64*%
X90225000Y-49500000D03*
X91775000Y-49500000D03*
%TD*%
%TO.C,C61*%
X104225000Y-67500000D03*
X105775000Y-67500000D03*
%TD*%
D38*
%TO.C,J2*%
X6540000Y-71210000D03*
X6540000Y-83910000D03*
D39*
X4000000Y-74000000D03*
D40*
X2220000Y-75016000D03*
X4000000Y-76032000D03*
X2220000Y-77048000D03*
X4000000Y-78064000D03*
X2220000Y-79080000D03*
X4000000Y-80096000D03*
X2220000Y-81112000D03*
D41*
X3110000Y-69430000D03*
X3110000Y-85690000D03*
%TD*%
D18*
%TO.C,C32*%
X82000000Y-104775000D03*
X82000000Y-103225000D03*
%TD*%
D14*
%TO.C,R10*%
X34000000Y-86825000D03*
X34000000Y-85175000D03*
%TD*%
D42*
%TO.C,U1*%
X102887500Y-87025000D03*
X102887500Y-87675000D03*
X102887500Y-88325000D03*
X102887500Y-88975000D03*
X107112500Y-88975000D03*
X107112500Y-88325000D03*
X107112500Y-87675000D03*
X107112500Y-87025000D03*
%TD*%
D43*
%TO.C,L1*%
X110300000Y-88000000D03*
X112700000Y-88000000D03*
%TD*%
D14*
%TO.C,R15*%
X46000000Y-92825000D03*
X46000000Y-91175000D03*
%TD*%
D22*
%TO.C,J6*%
X82000000Y-6000000D03*
D23*
X82000000Y-3460000D03*
X84540000Y-6000000D03*
X84540000Y-3460000D03*
X87080000Y-6000000D03*
X87080000Y-3460000D03*
X89620000Y-6000000D03*
X89620000Y-3460000D03*
X92160000Y-6000000D03*
X92160000Y-3460000D03*
X94700000Y-6000000D03*
X94700000Y-3460000D03*
X97240000Y-6000000D03*
X97240000Y-3460000D03*
X99780000Y-6000000D03*
X99780000Y-3460000D03*
X102320000Y-6000000D03*
X102320000Y-3460000D03*
X104860000Y-6000000D03*
X104860000Y-3460000D03*
X107400000Y-6000000D03*
X107400000Y-3460000D03*
X109940000Y-6000000D03*
X109940000Y-3460000D03*
X112480000Y-6000000D03*
X112480000Y-3460000D03*
%TD*%
D14*
%TO.C,R19*%
X54000000Y-86825000D03*
X54000000Y-85175000D03*
%TD*%
%TO.C,R14*%
X46000000Y-86825000D03*
X46000000Y-85175000D03*
%TD*%
D18*
%TO.C,C15*%
X38000000Y-98775000D03*
X38000000Y-97225000D03*
%TD*%
D28*
%TO.C,C17*%
X42000000Y-87475000D03*
X42000000Y-84525000D03*
%TD*%
D30*
%TO.C,H5*%
X25500000Y-10500000D03*
%TD*%
D44*
%TO.C,C1*%
X124300000Y-96000000D03*
X129700000Y-96000000D03*
%TD*%
D45*
%TO.C,SW3*%
X61500000Y-71000000D03*
D27*
X61500000Y-76000000D03*
X61500000Y-73500000D03*
D46*
X69000000Y-67900000D03*
X69000000Y-79100000D03*
D27*
X76000000Y-76000000D03*
X76000000Y-71000000D03*
%TD*%
D47*
%TO.C,SW2*%
X40750000Y-71000000D03*
X53250000Y-71000000D03*
X40750000Y-76000000D03*
X53250000Y-76000000D03*
%TD*%
D14*
%TO.C,R7*%
X30000000Y-92825000D03*
X30000000Y-91175000D03*
%TD*%
%TO.C,R24*%
X50000000Y-104825000D03*
X50000000Y-103175000D03*
%TD*%
D18*
%TO.C,C30*%
X82000000Y-92775000D03*
X82000000Y-91225000D03*
%TD*%
D12*
%TO.C,U9*%
X97137500Y-47075000D03*
X97137500Y-47725000D03*
X97137500Y-48375000D03*
X97137500Y-49025000D03*
X97137500Y-49675000D03*
X97137500Y-50325000D03*
X97137500Y-50975000D03*
X97137500Y-51625000D03*
X97137500Y-52275000D03*
X97137500Y-52925000D03*
X102862500Y-52925000D03*
X102862500Y-52275000D03*
X102862500Y-51625000D03*
X102862500Y-50975000D03*
X102862500Y-50325000D03*
X102862500Y-49675000D03*
X102862500Y-49025000D03*
X102862500Y-48375000D03*
X102862500Y-47725000D03*
X102862500Y-47075000D03*
%TD*%
D14*
%TO.C,R12*%
X34000000Y-98825000D03*
X34000000Y-97175000D03*
%TD*%
D19*
%TO.C,C9*%
X29050000Y-31000000D03*
X30950000Y-31000000D03*
%TD*%
D16*
%TO.C,C11*%
X38725000Y-31000000D03*
X40275000Y-31000000D03*
%TD*%
D48*
%TO.C,U7*%
X65137500Y-46500000D03*
X65137500Y-47000000D03*
X65137500Y-47500000D03*
X65137500Y-48000000D03*
X65137500Y-48500000D03*
X65137500Y-49000000D03*
X65137500Y-49500000D03*
X65137500Y-50000000D03*
X65137500Y-50500000D03*
X65137500Y-51000000D03*
X65137500Y-51500000D03*
X65137500Y-52000000D03*
X65137500Y-52500000D03*
X65137500Y-53000000D03*
X65137500Y-53500000D03*
X70862500Y-53500000D03*
X70862500Y-53000000D03*
X70862500Y-52500000D03*
X70862500Y-52000000D03*
X70862500Y-51500000D03*
X70862500Y-51000000D03*
X70862500Y-50500000D03*
X70862500Y-50000000D03*
X70862500Y-49500000D03*
X70862500Y-49000000D03*
X70862500Y-48500000D03*
X70862500Y-48000000D03*
X70862500Y-47500000D03*
X70862500Y-47000000D03*
X70862500Y-46500000D03*
%TD*%
D14*
%TO.C,R16*%
X46000000Y-98825000D03*
X46000000Y-97175000D03*
%TD*%
D15*
%TO.C,C10*%
X33525000Y-31000000D03*
X36475000Y-31000000D03*
%TD*%
D28*
%TO.C,C28*%
X74000000Y-105475000D03*
X74000000Y-102525000D03*
%TD*%
D49*
%TO.C,RV1*%
X132000000Y-82000000D03*
D50*
X132000000Y-79500000D03*
X132000000Y-77000000D03*
X129500000Y-82000000D03*
X129500000Y-79500000D03*
X129500000Y-77000000D03*
%TD*%
D51*
%TO.C,J4*%
X19870000Y-100150000D03*
D27*
X22000000Y-106500000D03*
X10570000Y-106500000D03*
D51*
X22000000Y-103350000D03*
X10570000Y-103350000D03*
X22000000Y-109700000D03*
X10570000Y-109700000D03*
X22000000Y-97000000D03*
X10570000Y-97000000D03*
%TD*%
D18*
%TO.C,C13*%
X38000000Y-86775000D03*
X38000000Y-85225000D03*
%TD*%
D22*
%TO.C,J7*%
X82000000Y-12500000D03*
D23*
X82000000Y-9960000D03*
X84540000Y-12500000D03*
X84540000Y-9960000D03*
X87080000Y-12500000D03*
X87080000Y-9960000D03*
X89620000Y-12500000D03*
X89620000Y-9960000D03*
X92160000Y-12500000D03*
X92160000Y-9960000D03*
X94700000Y-12500000D03*
X94700000Y-9960000D03*
X97240000Y-12500000D03*
X97240000Y-9960000D03*
X99780000Y-12500000D03*
X99780000Y-9960000D03*
X102320000Y-12500000D03*
X102320000Y-9960000D03*
X104860000Y-12500000D03*
X104860000Y-9960000D03*
X107400000Y-12500000D03*
X107400000Y-9960000D03*
X109940000Y-12500000D03*
X109940000Y-9960000D03*
X112480000Y-12500000D03*
X112480000Y-9960000D03*
%TD*%
D18*
%TO.C,C14*%
X38000000Y-92775000D03*
X38000000Y-91225000D03*
%TD*%
D14*
%TO.C,R35*%
X78000000Y-92825000D03*
X78000000Y-91175000D03*
%TD*%
D15*
%TO.C,C55*%
X108025000Y-43000000D03*
X110975000Y-43000000D03*
%TD*%
D28*
%TO.C,C18*%
X42000000Y-93475000D03*
X42000000Y-90525000D03*
%TD*%
D11*
%TO.C,R43*%
X9675000Y-52000000D03*
X11325000Y-52000000D03*
%TD*%
D28*
%TO.C,C25*%
X74000000Y-87475000D03*
X74000000Y-84525000D03*
%TD*%
D50*
%TO.C,U8*%
X60000000Y-59960000D03*
X60000000Y-57420000D03*
X60000000Y-54880000D03*
X60000000Y-52340000D03*
X60000000Y-26940000D03*
X77780000Y-4080000D03*
X60000000Y-49800000D03*
X60000000Y-47260000D03*
X60000000Y-44720000D03*
X60000000Y-42180000D03*
X60000000Y-39640000D03*
X60000000Y-37100000D03*
X60000000Y-34560000D03*
X60000000Y-32020000D03*
X60000000Y-29480000D03*
X77780000Y-32020000D03*
X77780000Y-34560000D03*
X77780000Y-37100000D03*
X77780000Y-39640000D03*
X77780000Y-42180000D03*
X77780000Y-44720000D03*
X77780000Y-47260000D03*
X77780000Y-49800000D03*
X77780000Y-52340000D03*
X77780000Y-54880000D03*
X77780000Y-57420000D03*
X60000000Y-24400000D03*
X60000000Y-21860000D03*
X60000000Y-19320000D03*
X60000000Y-16780000D03*
X60000000Y-14240000D03*
X60000000Y-11700000D03*
X60000000Y-9160000D03*
X60000000Y-6620000D03*
X60000000Y-4080000D03*
X77780000Y-9160000D03*
X77780000Y-11700000D03*
X77780000Y-14240000D03*
X77780000Y-16780000D03*
X77780000Y-19320000D03*
X77780000Y-21860000D03*
X77780000Y-24400000D03*
X77780000Y-26940000D03*
X77780000Y-29480000D03*
D52*
X60000000Y-62500000D03*
D50*
X77780000Y-59960000D03*
X77780000Y-6620000D03*
X77780000Y-62500000D03*
%TD*%
M02*
