%TF.GenerationSoftware,KiCad,Pcbnew,10.0.5*%
%TF.CreationDate,2026-08-01T18:54:08-05:00*%
%TF.ProjectId,QuadPreRecorder_rev3_4layer_routed,51756164-5072-4655-9265-636f72646572,B*%
%TF.SameCoordinates,Original*%
%TF.FileFunction,Soldermask,Bot*%
%TF.FilePolarity,Negative*%
%FSLAX46Y46*%
G04 Gerber Fmt 4.6, Leading zero omitted, Abs format (unit mm)*
G04 Created by KiCad (PCBNEW 10.0.5) date 2026-08-01 18:54:08*
%MOMM*%
%LPD*%
G01*
G04 APERTURE LIST*
G04 Aperture macros list*
%AMRoundRect*
0 Rectangle with rounded corners*
0 $1 Rounding radius*
0 $2 $3 $4 $5 $6 $7 $8 $9 X,Y pos of 4 corners*
0 Add a 4 corners polygon primitive as box body*
4,1,4,$2,$3,$4,$5,$6,$7,$8,$9,$2,$3,0*
0 Add four circle primitives for the rounded corners*
1,1,$1+$1,$2,$3*
1,1,$1+$1,$4,$5*
1,1,$1+$1,$6,$7*
1,1,$1+$1,$8,$9*
0 Add four rect primitives between the rounded corners*
20,1,$1+$1,$2,$3,$4,$5,0*
20,1,$1+$1,$4,$5,$6,$7,0*
20,1,$1+$1,$6,$7,$8,$9,0*
20,1,$1+$1,$8,$9,$2,$3,0*%
G04 Aperture macros list end*
%ADD10C,2.800000*%
%ADD11R,1.700000X1.700000*%
%ADD12C,1.700000*%
%ADD13C,2.049999*%
%ADD14O,1.800000X2.700000*%
%ADD15C,3.200000*%
%ADD16O,1.800000X2.800000*%
%ADD17R,2.600000X2.600000*%
%ADD18C,2.600000*%
%ADD19C,3.250000*%
%ADD20R,1.500000X1.500000*%
%ADD21C,1.500000*%
%ADD22C,2.300000*%
%ADD23R,2.000000X2.000000*%
%ADD24C,2.000000*%
%ADD25R,3.200000X2.000000*%
%ADD26O,3.200000X1.900000*%
%ADD27RoundRect,0.450000X-0.450000X-0.450000X0.450000X-0.450000X0.450000X0.450000X-0.450000X0.450000X0*%
%ADD28C,1.800000*%
%ADD29C,3.000000*%
%ADD30RoundRect,0.200000X0.275000X-0.200000X0.275000X0.200000X-0.275000X0.200000X-0.275000X-0.200000X0*%
%ADD31RoundRect,0.200000X-0.200000X-0.275000X0.200000X-0.275000X0.200000X0.275000X-0.200000X0.275000X0*%
%ADD32RoundRect,0.225000X-0.225000X-0.250000X0.225000X-0.250000X0.225000X0.250000X-0.225000X0.250000X0*%
%ADD33RoundRect,0.150000X-0.512500X-0.150000X0.512500X-0.150000X0.512500X0.150000X-0.512500X0.150000X0*%
%ADD34R,1.800000X1.800000*%
%ADD35RoundRect,0.225000X0.250000X-0.225000X0.250000X0.225000X-0.250000X0.225000X-0.250000X-0.225000X0*%
%ADD36RoundRect,0.250000X-0.250000X-0.475000X0.250000X-0.475000X0.250000X0.475000X-0.250000X0.475000X0*%
%ADD37RoundRect,0.250000X-0.325000X-0.650000X0.325000X-0.650000X0.325000X0.650000X-0.325000X0.650000X0*%
%ADD38RoundRect,0.250000X-1.500000X-0.550000X1.500000X-0.550000X1.500000X0.550000X-1.500000X0.550000X0*%
%ADD39RoundRect,0.250000X-1.000000X-0.650000X1.000000X-0.650000X1.000000X0.650000X-1.000000X0.650000X0*%
G04 APERTURE END LIST*
D10*
%TO.C,SW1*%
X14900000Y-40000000D03*
X18710000Y-40000000D03*
X22520000Y-40000000D03*
X2200000Y-37460000D03*
X2200000Y-42540000D03*
%TD*%
D11*
%TO.C,J3*%
X113350000Y-63000000D03*
D12*
X110810000Y-63000000D03*
X108270000Y-63000000D03*
X105730000Y-63000000D03*
X103190000Y-63000000D03*
X100650000Y-63000000D03*
X98110000Y-63000000D03*
X95570000Y-63000000D03*
X93030000Y-63000000D03*
X90490000Y-63000000D03*
X87950000Y-63000000D03*
X85410000Y-63000000D03*
X82870000Y-63000000D03*
X80330000Y-63000000D03*
%TD*%
D13*
%TO.C,SW4*%
X87750000Y-68350000D03*
D14*
X87750000Y-73500000D03*
D13*
X87750000Y-78650000D03*
X94250000Y-78650000D03*
D14*
X94250000Y-73500000D03*
D13*
X94250000Y-68350000D03*
%TD*%
D15*
%TO.C,H8*%
X118800000Y-61840000D03*
%TD*%
%TO.C,H7*%
X25500000Y-61840000D03*
%TD*%
%TO.C,H6*%
X118800000Y-10500000D03*
%TD*%
D16*
%TO.C,J5*%
X125600000Y-43000000D03*
X133500000Y-41000000D03*
X131100000Y-43000000D03*
%TD*%
D17*
%TO.C,J1*%
X108000000Y-105800000D03*
D18*
X108000000Y-111800000D03*
X112700000Y-108800000D03*
%TD*%
D19*
%TO.C,J2*%
X6540000Y-71210000D03*
X6540000Y-83910000D03*
D20*
X4000000Y-74000000D03*
D21*
X2220000Y-75016000D03*
X4000000Y-76032000D03*
X2220000Y-77048000D03*
X4000000Y-78064000D03*
X2220000Y-79080000D03*
X4000000Y-80096000D03*
X2220000Y-81112000D03*
D22*
X3110000Y-69430000D03*
X3110000Y-85690000D03*
%TD*%
D11*
%TO.C,J6*%
X82000000Y-6000000D03*
D12*
X82000000Y-3460000D03*
X84540000Y-6000000D03*
X84540000Y-3460000D03*
X87080000Y-6000000D03*
X87080000Y-3460000D03*
X89620000Y-6000000D03*
X89620000Y-3460000D03*
X92160000Y-6000000D03*
X92160000Y-3460000D03*
X94700000Y-6000000D03*
X94700000Y-3460000D03*
X97240000Y-6000000D03*
X97240000Y-3460000D03*
X99780000Y-6000000D03*
X99780000Y-3460000D03*
X102320000Y-6000000D03*
X102320000Y-3460000D03*
X104860000Y-6000000D03*
X104860000Y-3460000D03*
X107400000Y-6000000D03*
X107400000Y-3460000D03*
X109940000Y-6000000D03*
X109940000Y-3460000D03*
X112480000Y-6000000D03*
X112480000Y-3460000D03*
%TD*%
D15*
%TO.C,H5*%
X25500000Y-10500000D03*
%TD*%
D23*
%TO.C,SW3*%
X61500000Y-71000000D03*
D24*
X61500000Y-76000000D03*
X61500000Y-73500000D03*
D25*
X69000000Y-67900000D03*
X69000000Y-79100000D03*
D24*
X76000000Y-76000000D03*
X76000000Y-71000000D03*
%TD*%
D26*
%TO.C,SW2*%
X40750000Y-71000000D03*
X53250000Y-71000000D03*
X40750000Y-76000000D03*
X53250000Y-76000000D03*
%TD*%
D27*
%TO.C,RV1*%
X132000000Y-82000000D03*
D28*
X132000000Y-79500000D03*
X132000000Y-77000000D03*
X129500000Y-82000000D03*
X129500000Y-79500000D03*
X129500000Y-77000000D03*
%TD*%
D29*
%TO.C,J4*%
X19870000Y-100150000D03*
D24*
X22000000Y-106500000D03*
X10570000Y-106500000D03*
D29*
X22000000Y-103350000D03*
X10570000Y-103350000D03*
X22000000Y-109700000D03*
X10570000Y-109700000D03*
X22000000Y-97000000D03*
X10570000Y-97000000D03*
%TD*%
D11*
%TO.C,J7*%
X82000000Y-12500000D03*
D12*
X82000000Y-9960000D03*
X84540000Y-12500000D03*
X84540000Y-9960000D03*
X87080000Y-12500000D03*
X87080000Y-9960000D03*
X89620000Y-12500000D03*
X89620000Y-9960000D03*
X92160000Y-12500000D03*
X92160000Y-9960000D03*
X94700000Y-12500000D03*
X94700000Y-9960000D03*
X97240000Y-12500000D03*
X97240000Y-9960000D03*
X99780000Y-12500000D03*
X99780000Y-9960000D03*
X102320000Y-12500000D03*
X102320000Y-9960000D03*
X104860000Y-12500000D03*
X104860000Y-9960000D03*
X107400000Y-12500000D03*
X107400000Y-9960000D03*
X109940000Y-12500000D03*
X109940000Y-9960000D03*
X112480000Y-12500000D03*
X112480000Y-9960000D03*
%TD*%
D30*
%TO.C,R29*%
X60000000Y-104825000D03*
X60000000Y-103175000D03*
%TD*%
D31*
%TO.C,R74*%
X117175000Y-28000000D03*
X118825000Y-28000000D03*
%TD*%
%TO.C,R49*%
X115175000Y-40000000D03*
X116825000Y-40000000D03*
%TD*%
D24*
%TO.C,FID5*%
X126000000Y-66000000D03*
%TD*%
D31*
%TO.C,R57*%
X85175000Y-46000000D03*
X86825000Y-46000000D03*
%TD*%
D24*
%TO.C,FID4*%
X12000000Y-8000000D03*
%TD*%
D32*
%TO.C,C40*%
X55225000Y-54000000D03*
X56775000Y-54000000D03*
%TD*%
D30*
%TO.C,R30*%
X66000000Y-86825000D03*
X66000000Y-85175000D03*
%TD*%
D33*
%TO.C,U2*%
X86862500Y-55950000D03*
X86862500Y-55000000D03*
X86862500Y-54050000D03*
X89137500Y-54050000D03*
X89137500Y-55950000D03*
%TD*%
D28*
%TO.C,U8*%
X60000000Y-59960000D03*
X60000000Y-57420000D03*
X60000000Y-54880000D03*
X60000000Y-52340000D03*
X60000000Y-26940000D03*
X77780000Y-4080000D03*
X60000000Y-49800000D03*
X60000000Y-47260000D03*
X60000000Y-44720000D03*
X60000000Y-42180000D03*
X60000000Y-39640000D03*
X60000000Y-37100000D03*
X60000000Y-34560000D03*
X60000000Y-32020000D03*
X60000000Y-29480000D03*
X77780000Y-32020000D03*
X77780000Y-34560000D03*
X77780000Y-37100000D03*
X77780000Y-39640000D03*
X77780000Y-42180000D03*
X77780000Y-44720000D03*
X77780000Y-47260000D03*
X77780000Y-49800000D03*
X77780000Y-52340000D03*
X77780000Y-54880000D03*
X77780000Y-57420000D03*
X60000000Y-24400000D03*
X60000000Y-21860000D03*
X60000000Y-19320000D03*
X60000000Y-16780000D03*
X60000000Y-14240000D03*
X60000000Y-11700000D03*
X60000000Y-9160000D03*
X60000000Y-6620000D03*
X60000000Y-4080000D03*
X77780000Y-9160000D03*
X77780000Y-11700000D03*
X77780000Y-14240000D03*
X77780000Y-16780000D03*
X77780000Y-19320000D03*
X77780000Y-21860000D03*
X77780000Y-24400000D03*
X77780000Y-26940000D03*
X77780000Y-29480000D03*
D34*
X60000000Y-62500000D03*
D28*
X77780000Y-59960000D03*
X77780000Y-6620000D03*
X77780000Y-62500000D03*
%TD*%
D31*
%TO.C,R72*%
X109175000Y-28000000D03*
X110825000Y-28000000D03*
%TD*%
D32*
%TO.C,C34*%
X39225000Y-40000000D03*
X40775000Y-40000000D03*
%TD*%
%TO.C,C73*%
X117225000Y-32000000D03*
X118775000Y-32000000D03*
%TD*%
%TO.C,C48*%
X101225000Y-24000000D03*
X102775000Y-24000000D03*
%TD*%
D31*
%TO.C,R47*%
X107175000Y-40000000D03*
X108825000Y-40000000D03*
%TD*%
D30*
%TO.C,R40*%
X86000000Y-98825000D03*
X86000000Y-97175000D03*
%TD*%
D35*
%TO.C,C23*%
X70000000Y-98775000D03*
X70000000Y-97225000D03*
%TD*%
D30*
%TO.C,R26*%
X60000000Y-86825000D03*
X60000000Y-85175000D03*
%TD*%
%TO.C,R39*%
X86000000Y-92825000D03*
X86000000Y-91175000D03*
%TD*%
D31*
%TO.C,R48*%
X111175000Y-40000000D03*
X112825000Y-40000000D03*
%TD*%
D36*
%TO.C,C39*%
X55050000Y-50000000D03*
X56950000Y-50000000D03*
%TD*%
D37*
%TO.C,C37*%
X49525000Y-42000000D03*
X52475000Y-42000000D03*
%TD*%
D36*
%TO.C,C8*%
X91550000Y-59000000D03*
X93450000Y-59000000D03*
%TD*%
D35*
%TO.C,C21*%
X70000000Y-86775000D03*
X70000000Y-85225000D03*
%TD*%
D32*
%TO.C,C47*%
X105225000Y-16000000D03*
X106775000Y-16000000D03*
%TD*%
D30*
%TO.C,R33*%
X66000000Y-104825000D03*
X66000000Y-103175000D03*
%TD*%
D31*
%TO.C,R51*%
X101175000Y-20000000D03*
X102825000Y-20000000D03*
%TD*%
%TO.C,R58*%
X89175000Y-46000000D03*
X90825000Y-46000000D03*
%TD*%
D30*
%TO.C,R41*%
X86000000Y-104825000D03*
X86000000Y-103175000D03*
%TD*%
D32*
%TO.C,C49*%
X105225000Y-24000000D03*
X106775000Y-24000000D03*
%TD*%
D30*
%TO.C,R38*%
X86000000Y-86825000D03*
X86000000Y-85175000D03*
%TD*%
D32*
%TO.C,C43*%
X83225000Y-52000000D03*
X84775000Y-52000000D03*
%TD*%
D31*
%TO.C,R52*%
X105175000Y-20000000D03*
X106825000Y-20000000D03*
%TD*%
D35*
%TO.C,C22*%
X70000000Y-92775000D03*
X70000000Y-91225000D03*
%TD*%
D31*
%TO.C,R71*%
X105175000Y-28000000D03*
X106825000Y-28000000D03*
%TD*%
D35*
%TO.C,C24*%
X70000000Y-104775000D03*
X70000000Y-103225000D03*
%TD*%
D32*
%TO.C,C50*%
X109225000Y-24000000D03*
X110775000Y-24000000D03*
%TD*%
D37*
%TO.C,C62*%
X91525000Y-48000000D03*
X94475000Y-48000000D03*
%TD*%
D32*
%TO.C,C63*%
X92225000Y-52000000D03*
X93775000Y-52000000D03*
%TD*%
%TO.C,C41*%
X83225000Y-44000000D03*
X84775000Y-44000000D03*
%TD*%
D37*
%TO.C,C42*%
X82525000Y-48000000D03*
X85475000Y-48000000D03*
%TD*%
D31*
%TO.C,R50*%
X101175000Y-16000000D03*
X102825000Y-16000000D03*
%TD*%
%TO.C,R61*%
X101175000Y-46000000D03*
X102825000Y-46000000D03*
%TD*%
D32*
%TO.C,C72*%
X113225000Y-32000000D03*
X114775000Y-32000000D03*
%TD*%
D30*
%TO.C,R32*%
X66000000Y-98825000D03*
X66000000Y-97175000D03*
%TD*%
D32*
%TO.C,C35*%
X39225000Y-60500000D03*
X40775000Y-60500000D03*
%TD*%
D30*
%TO.C,R28*%
X60000000Y-98825000D03*
X60000000Y-97175000D03*
%TD*%
D32*
%TO.C,C70*%
X105225000Y-32000000D03*
X106775000Y-32000000D03*
%TD*%
D36*
%TO.C,C7*%
X91550000Y-55000000D03*
X93450000Y-55000000D03*
%TD*%
D30*
%TO.C,R27*%
X60000000Y-92825000D03*
X60000000Y-91175000D03*
%TD*%
D37*
%TO.C,C46*%
X46525000Y-56000000D03*
X49475000Y-56000000D03*
%TD*%
D32*
%TO.C,C44*%
X83225000Y-56000000D03*
X84775000Y-56000000D03*
%TD*%
%TO.C,C69*%
X101225000Y-32000000D03*
X102775000Y-32000000D03*
%TD*%
%TO.C,C36*%
X46225000Y-42000000D03*
X47775000Y-42000000D03*
%TD*%
D31*
%TO.C,R59*%
X93175000Y-46000000D03*
X94825000Y-46000000D03*
%TD*%
D37*
%TO.C,C45*%
X82525000Y-60000000D03*
X85475000Y-60000000D03*
%TD*%
D31*
%TO.C,R44*%
X95175000Y-40000000D03*
X96825000Y-40000000D03*
%TD*%
D30*
%TO.C,R31*%
X66000000Y-92825000D03*
X66000000Y-91175000D03*
%TD*%
D24*
%TO.C,FID6*%
X60000000Y-110000000D03*
%TD*%
D32*
%TO.C,C71*%
X109225000Y-32000000D03*
X110775000Y-32000000D03*
%TD*%
D31*
%TO.C,R73*%
X113175000Y-28000000D03*
X114825000Y-28000000D03*
%TD*%
%TO.C,R70*%
X101175000Y-28000000D03*
X102825000Y-28000000D03*
%TD*%
D38*
%TO.C,C66*%
X31300000Y-74000000D03*
X36700000Y-74000000D03*
%TD*%
D31*
%TO.C,R53*%
X109175000Y-20000000D03*
X110825000Y-20000000D03*
%TD*%
%TO.C,R46*%
X103175000Y-40000000D03*
X104825000Y-40000000D03*
%TD*%
%TO.C,R60*%
X97175000Y-46000000D03*
X98825000Y-46000000D03*
%TD*%
D39*
%TO.C,D3*%
X46000000Y-60000000D03*
X50000000Y-60000000D03*
%TD*%
D36*
%TO.C,C38*%
X55050000Y-46000000D03*
X56950000Y-46000000D03*
%TD*%
D31*
%TO.C,R45*%
X99175000Y-40000000D03*
X100825000Y-40000000D03*
%TD*%
%TO.C,R69*%
X119175000Y-40000000D03*
X120825000Y-40000000D03*
%TD*%
M02*
