M48
; DRILL file KiCad 10.0.5 date 2026-08-01T18:54:09
; FORMAT={-:-/ absolute / metric / decimal}
; #@! TF.CreationDate,2026-08-01T18:54:09-05:00
; #@! TF.GenerationSoftware,Kicad,Pcbnew,10.0.5
; #@! TF.FileFunction,MixedPlating,1,4
FMAT,2
METRIC
; #@! TA.AperFunction,Plated,PTH,ViaDrill
T1C0.300
; #@! TA.AperFunction,Plated,PTH,ViaDrill
T2C0.400
; #@! TA.AperFunction,Plated,PTH,ComponentDrill
T3C0.890
; #@! TA.AperFunction,Plated,PTH,ComponentDrill
T4C1.000
; #@! TA.AperFunction,Plated,PTH,ComponentDrill
T5C1.200
; #@! TA.AperFunction,Plated,PTH,ComponentDrill
T6C1.300
; #@! TA.AperFunction,Plated,PTH,ComponentDrill
T7C1.500
; #@! TA.AperFunction,Plated,PTH,ComponentDrill
T8C1.570
; #@! TA.AperFunction,Plated,PTH,ComponentDrill
T9C1.600
; #@! TA.AperFunction,Plated,PTH,ComponentDrill
T10C1.850
; #@! TA.AperFunction,NonPlated,NPTH,ComponentDrill
T11C2.000
; #@! TA.AperFunction,NonPlated,NPTH,ComponentDrill
T12C3.000
; #@! TA.AperFunction,NonPlated,NPTH,ComponentDrill
T13C3.200
; #@! TA.AperFunction,NonPlated,NPTH,ComponentDrill
T14C3.250
%
G90
G05
T1
X110.775Y-48.7
X116.175Y-37.6
X118.275Y-25.3
T2
X6.625Y-80.064
X12.444Y-49.035
X22.731Y-30.542
X23.769Y-76.032
X24.291Y-68.177
X24.7Y-47.6
X25.82Y-80.004
X28.969Y-86.544
X30.357Y-80.627
X32.116Y-85.636
X32.676Y-92.824
X33.356Y-53.122
X33.617Y-42.998
X34.381Y-42.377
X35.035Y-66.95
X36.057Y-38.841
X36.118Y-71.99
X37.064Y-59.496
X39.123Y-38.841
X39.868Y-37.859
X40.058Y-54.375
X40.084Y-35.501
X40.242Y-102.694
X40.516Y-58.82
X40.88Y-44.325
X41.237Y-56.643
X41.556Y-55.675
X41.577Y-52.67
X41.618Y-40.855
X42.438Y-91.664
X43.059Y-83.466
X43.163Y-79.94
X44.0Y-43.1
X46.668Y-88.142
X48.004Y-3.632
X48.779Y-91.175
X49.532Y-100.316
X50.102Y-1.845
X50.391Y-5.423
X50.429Y-48.7
X50.663Y-41.131
X50.68Y-84.292
X51.017Y-50.265
X51.087Y-44.796
X51.087Y-47.981
X51.642Y-1.616
X51.8Y-46.0
X52.867Y-2.311
X53.506Y-50.0
X53.761Y-61.121
X54.186Y-54.056
X56.171Y-52.133
X56.375Y-48.5
X57.088Y-58.585
X57.619Y-52.789
X57.72Y-51.74
X58.364Y-103.175
X58.4Y-49.2
X58.457Y-47.7
X58.535Y-19.123
X61.247Y-2.665
X61.4Y-38.4
X61.652Y-44.121
X61.829Y-51.165
X61.867Y-45.127
X62.221Y-59.567
X62.3Y-53.0
X64.007Y-46.004
X66.434Y-46.113
X66.453Y-44.121
X66.455Y-33.338
X66.865Y-47.032
X67.523Y-48.55
X67.55Y-49.55
X68.412Y-49.105
X68.956Y-14.24
X69.4Y-47.0
X69.5Y-50.35
X69.564Y-64.849
X69.6Y-53.0
X69.778Y-28.294
X69.899Y-87.779
X69.9Y-16.3
X69.969Y-99.788
X70.0Y-93.796
X70.702Y-30.75
X70.85Y-48.7
X70.9Y-9.6
X70.924Y-11.081
X70.924Y-20.491
X71.187Y-105.475
X71.248Y-95.624
X72.191Y-26.617
X72.251Y-7.49
X72.537Y-37.109
X72.537Y-59.264
X73.269Y-45.127
X73.3Y-50.4
X74.054Y-12.926
X74.4Y-10.7
X75.066Y-18.639
X75.417Y-6.62
X75.833Y-58.585
X76.1Y-10.9
X76.197Y-107.922
X76.2Y-16.3
X76.3Y-12.0
X76.614Y-56.313
X78.0Y-84.208
X78.52Y-66.643
X79.471Y-18.322
X80.198Y-10.681
X80.4Y-8.9
X80.494Y-21.143
X81.996Y-23.13
X82.151Y-56.851
X82.2Y-59.1
X82.525Y-50.039
X82.9Y-52.1
X83.021Y-61.458
X83.1Y-15.3
X83.697Y-96.522
X84.033Y-16.349
X84.072Y-57.855
X84.932Y-92.775
X84.968Y-104.775
X85.1Y-14.4
X85.481Y-16.014
X86.0Y-88.738
X87.573Y-52.737
X87.808Y-94.949
X87.831Y-40.217
X88.225Y-50.076
X88.242Y-29.561
X88.26Y-4.284
X88.974Y-52.345
X89.056Y-23.13
X89.743Y-34.707
X91.061Y-67.373
X91.491Y-41.895
X91.5Y-14.2
X91.5Y-19.8
X93.435Y-19.954
X93.474Y-39.748
X93.656Y-49.604
X94.874Y-37.413
X95.626Y-48.375
X95.737Y-53.94
X96.8Y-7.4
X96.902Y-37.716
X97.006Y-25.67
X98.121Y-32.294
X98.989Y-16.612
X99.212Y-82.0
X99.376Y-19.13
X99.899Y-19.954
X100.29Y-58.0
X100.488Y-50.842
X100.965Y-49.025
X101.344Y-57.445
X102.018Y-19.26
X102.5Y-15.9
X103.597Y-80.475
X103.8Y-37.9
X104.514Y-50.532
X104.538Y-103.993
X104.628Y-72.101
X105.1Y-21.8
X105.214Y-61.207
X105.401Y-45.461
X105.65Y-52.45
X106.062Y-41.447
X106.193Y-61.588
X106.21Y-1.209
X106.419Y-42.406
X107.862Y-27.72
X108.207Y-41.541
X108.527Y-8.579
X109.219Y-61.772
X109.225Y-22.218
X109.3Y-52.2
X110.028Y-46.147
X110.028Y-54.494
X110.692Y-51.457
X110.692Y-53.603
X110.945Y-58.94
X111.198Y-41.039
X111.75Y-52.8
X111.978Y-72.753
X112.477Y-58.853
X112.9Y-40.8
X113.1Y-59.6
X113.161Y-42.179
X113.206Y-53.529
X113.295Y-58.246
X113.5Y-57.0
X114.66Y-83.235
X115.175Y-38.694
X115.512Y-10.451
X115.789Y-28.075
X115.965Y-35.509
X116.825Y-34.707
X118.4Y-39.4
X120.825Y-36.539
X124.281Y-40.089
T3
X2.22Y-75.016
X2.22Y-77.048
X2.22Y-79.08
X2.22Y-81.112
X4.0Y-74.0
X4.0Y-76.032
X4.0Y-78.064
X4.0Y-80.096
T4
X60.0Y-4.08
X60.0Y-6.62
X60.0Y-9.16
X60.0Y-11.7
X60.0Y-14.24
X60.0Y-16.78
X60.0Y-19.32
X60.0Y-21.86
X60.0Y-24.4
X60.0Y-26.94
X60.0Y-29.48
X60.0Y-32.02
X60.0Y-34.56
X60.0Y-37.1
X60.0Y-39.64
X60.0Y-42.18
X60.0Y-44.72
X60.0Y-47.26
X60.0Y-49.8
X60.0Y-52.34
X60.0Y-54.88
X60.0Y-57.42
X60.0Y-59.96
X60.0Y-62.5
X61.5Y-71.0
X61.5Y-73.5
X61.5Y-76.0
X76.0Y-71.0
X76.0Y-76.0
X77.78Y-4.08
X77.78Y-6.62
X77.78Y-9.16
X77.78Y-11.7
X77.78Y-14.24
X77.78Y-16.78
X77.78Y-19.32
X77.78Y-21.86
X77.78Y-24.4
X77.78Y-26.94
X77.78Y-29.48
X77.78Y-32.02
X77.78Y-34.56
X77.78Y-37.1
X77.78Y-39.64
X77.78Y-42.18
X77.78Y-44.72
X77.78Y-47.26
X77.78Y-49.8
X77.78Y-52.34
X77.78Y-54.88
X77.78Y-57.42
X77.78Y-59.96
X77.78Y-62.5
X80.33Y-63.0
X82.0Y-3.46
X82.0Y-6.0
X82.0Y-9.96
X82.0Y-12.5
X82.87Y-63.0
X84.54Y-3.46
X84.54Y-6.0
X84.54Y-9.96
X84.54Y-12.5
X85.41Y-63.0
X87.08Y-3.46
X87.08Y-6.0
X87.08Y-9.96
X87.08Y-12.5
X87.95Y-63.0
X89.62Y-3.46
X89.62Y-6.0
X89.62Y-9.96
X89.62Y-12.5
X90.49Y-63.0
X92.16Y-3.46
X92.16Y-6.0
X92.16Y-9.96
X92.16Y-12.5
X93.03Y-63.0
X94.7Y-3.46
X94.7Y-6.0
X94.7Y-9.96
X94.7Y-12.5
X95.57Y-63.0
X97.24Y-3.46
X97.24Y-6.0
X97.24Y-9.96
X97.24Y-12.5
X98.11Y-63.0
X99.78Y-3.46
X99.78Y-6.0
X99.78Y-9.96
X99.78Y-12.5
X100.65Y-63.0
X102.32Y-3.46
X102.32Y-6.0
X102.32Y-9.96
X102.32Y-12.5
X103.19Y-63.0
X104.86Y-3.46
X104.86Y-6.0
X104.86Y-9.96
X104.86Y-12.5
X105.73Y-63.0
X107.4Y-3.46
X107.4Y-6.0
X107.4Y-9.96
X107.4Y-12.5
X108.27Y-63.0
X109.94Y-3.46
X109.94Y-6.0
X109.94Y-9.96
X109.94Y-12.5
X110.81Y-63.0
X112.48Y-3.46
X112.48Y-6.0
X112.48Y-9.96
X112.48Y-12.5
X113.35Y-63.0
X129.5Y-77.0
X129.5Y-79.5
X129.5Y-82.0
X132.0Y-77.0
X132.0Y-79.5
X132.0Y-82.0
T5
X87.75Y-68.35
X87.75Y-78.65
X94.25Y-68.35
X94.25Y-78.65
T6
X40.75Y-71.0
X40.75Y-76.0
X53.25Y-71.0
X53.25Y-76.0
T7
X10.57Y-97.0
X10.57Y-103.35
X10.57Y-109.7
X22.0Y-97.0
X22.0Y-103.35
X22.0Y-109.7
T8
X3.11Y-69.43
X3.11Y-85.69
T9
X108.0Y-105.8
X108.0Y-111.8
X112.7Y-108.8
T10
X2.2Y-37.46
X2.2Y-42.54
X14.9Y-40.0
X18.71Y-40.0
X22.52Y-40.0
T11
X10.57Y-106.5
X22.0Y-106.5
T12
X19.87Y-100.15
T13
X25.5Y-10.5
X25.5Y-61.84
X118.8Y-10.5
X118.8Y-61.84
T14
X6.54Y-71.21
X6.54Y-83.91
T4
X87.75Y-73.05G85X87.75Y-73.95
G05
X94.25Y-73.05G85X94.25Y-73.95
G05
X125.6Y-42.5G85X125.6Y-43.5
G05
X131.1Y-42.5G85X131.1Y-43.5
G05
X133.5Y-40.5G85X133.5Y-41.5
G05
T7
X68.35Y-67.9G85X69.65Y-67.9
G05
X68.35Y-79.1G85X69.65Y-79.1
G05
M30
