%TF.GenerationSoftware,KiCad,Pcbnew,10.0.5*%
%TF.CreationDate,2026-08-01T18:54:08-05:00*%
%TF.ProjectId,QuadPreRecorder_rev3_4layer_routed,51756164-5072-4655-9265-636f72646572,B*%
%TF.SameCoordinates,Original*%
%TF.FileFunction,Paste,Bot*%
%TF.FilePolarity,Positive*%
%FSLAX46Y46*%
G04 Gerber Fmt 4.6, Leading zero omitted, Abs format (unit mm)*
G04 Created by KiCad (PCBNEW 10.0.5) date 2026-08-01 18:54:08*
%MOMM*%
%LPD*%
G01*
G04 APERTURE LIST*
G04 Aperture macros list*
%AMRoundRect*
0 Rectangle with rounded corners*
0 $1 Rounding radius*
0 $2 $3 $4 $5 $6 $7 $8 $9 X,Y pos of 4 corners*
0 Add a 4 corners polygon primitive as box body*
4,1,4,$2,$3,$4,$5,$6,$7,$8,$9,$2,$3,0*
0 Add four circle primitives for the rounded corners*
1,1,$1+$1,$2,$3*
1,1,$1+$1,$4,$5*
1,1,$1+$1,$6,$7*
1,1,$1+$1,$8,$9*
0 Add four rect primitives between the rounded corners*
20,1,$1+$1,$2,$3,$4,$5,0*
20,1,$1+$1,$4,$5,$6,$7,0*
20,1,$1+$1,$6,$7,$8,$9,0*
20,1,$1+$1,$8,$9,$2,$3,0*%
G04 Aperture macros list end*
%ADD10RoundRect,0.200000X0.275000X-0.200000X0.275000X0.200000X-0.275000X0.200000X-0.275000X-0.200000X0*%
%ADD11RoundRect,0.200000X-0.200000X-0.275000X0.200000X-0.275000X0.200000X0.275000X-0.200000X0.275000X0*%
%ADD12RoundRect,0.225000X-0.225000X-0.250000X0.225000X-0.250000X0.225000X0.250000X-0.225000X0.250000X0*%
%ADD13RoundRect,0.150000X-0.512500X-0.150000X0.512500X-0.150000X0.512500X0.150000X-0.512500X0.150000X0*%
%ADD14RoundRect,0.225000X0.250000X-0.225000X0.250000X0.225000X-0.250000X0.225000X-0.250000X-0.225000X0*%
%ADD15RoundRect,0.250000X-0.250000X-0.475000X0.250000X-0.475000X0.250000X0.475000X-0.250000X0.475000X0*%
%ADD16RoundRect,0.250000X-0.325000X-0.650000X0.325000X-0.650000X0.325000X0.650000X-0.325000X0.650000X0*%
%ADD17RoundRect,0.250000X-1.500000X-0.550000X1.500000X-0.550000X1.500000X0.550000X-1.500000X0.550000X0*%
%ADD18RoundRect,0.250000X-1.000000X-0.650000X1.000000X-0.650000X1.000000X0.650000X-1.000000X0.650000X0*%
G04 APERTURE END LIST*
D10*
%TO.C,R29*%
X60000000Y-104825000D03*
X60000000Y-103175000D03*
%TD*%
D11*
%TO.C,R74*%
X117175000Y-28000000D03*
X118825000Y-28000000D03*
%TD*%
%TO.C,R49*%
X115175000Y-40000000D03*
X116825000Y-40000000D03*
%TD*%
%TO.C,R57*%
X85175000Y-46000000D03*
X86825000Y-46000000D03*
%TD*%
D12*
%TO.C,C40*%
X55225000Y-54000000D03*
X56775000Y-54000000D03*
%TD*%
D10*
%TO.C,R30*%
X66000000Y-86825000D03*
X66000000Y-85175000D03*
%TD*%
D13*
%TO.C,U2*%
X86862500Y-55950000D03*
X86862500Y-55000000D03*
X86862500Y-54050000D03*
X89137500Y-54050000D03*
X89137500Y-55950000D03*
%TD*%
D11*
%TO.C,R72*%
X109175000Y-28000000D03*
X110825000Y-28000000D03*
%TD*%
D12*
%TO.C,C34*%
X39225000Y-40000000D03*
X40775000Y-40000000D03*
%TD*%
%TO.C,C73*%
X117225000Y-32000000D03*
X118775000Y-32000000D03*
%TD*%
%TO.C,C48*%
X101225000Y-24000000D03*
X102775000Y-24000000D03*
%TD*%
D11*
%TO.C,R47*%
X107175000Y-40000000D03*
X108825000Y-40000000D03*
%TD*%
D10*
%TO.C,R40*%
X86000000Y-98825000D03*
X86000000Y-97175000D03*
%TD*%
D14*
%TO.C,C23*%
X70000000Y-98775000D03*
X70000000Y-97225000D03*
%TD*%
D10*
%TO.C,R26*%
X60000000Y-86825000D03*
X60000000Y-85175000D03*
%TD*%
%TO.C,R39*%
X86000000Y-92825000D03*
X86000000Y-91175000D03*
%TD*%
D11*
%TO.C,R48*%
X111175000Y-40000000D03*
X112825000Y-40000000D03*
%TD*%
D15*
%TO.C,C39*%
X55050000Y-50000000D03*
X56950000Y-50000000D03*
%TD*%
D16*
%TO.C,C37*%
X49525000Y-42000000D03*
X52475000Y-42000000D03*
%TD*%
D15*
%TO.C,C8*%
X91550000Y-59000000D03*
X93450000Y-59000000D03*
%TD*%
D14*
%TO.C,C21*%
X70000000Y-86775000D03*
X70000000Y-85225000D03*
%TD*%
D12*
%TO.C,C47*%
X105225000Y-16000000D03*
X106775000Y-16000000D03*
%TD*%
D10*
%TO.C,R33*%
X66000000Y-104825000D03*
X66000000Y-103175000D03*
%TD*%
D11*
%TO.C,R51*%
X101175000Y-20000000D03*
X102825000Y-20000000D03*
%TD*%
%TO.C,R58*%
X89175000Y-46000000D03*
X90825000Y-46000000D03*
%TD*%
D10*
%TO.C,R41*%
X86000000Y-104825000D03*
X86000000Y-103175000D03*
%TD*%
D12*
%TO.C,C49*%
X105225000Y-24000000D03*
X106775000Y-24000000D03*
%TD*%
D10*
%TO.C,R38*%
X86000000Y-86825000D03*
X86000000Y-85175000D03*
%TD*%
D12*
%TO.C,C43*%
X83225000Y-52000000D03*
X84775000Y-52000000D03*
%TD*%
D11*
%TO.C,R52*%
X105175000Y-20000000D03*
X106825000Y-20000000D03*
%TD*%
D14*
%TO.C,C22*%
X70000000Y-92775000D03*
X70000000Y-91225000D03*
%TD*%
D11*
%TO.C,R71*%
X105175000Y-28000000D03*
X106825000Y-28000000D03*
%TD*%
D14*
%TO.C,C24*%
X70000000Y-104775000D03*
X70000000Y-103225000D03*
%TD*%
D12*
%TO.C,C50*%
X109225000Y-24000000D03*
X110775000Y-24000000D03*
%TD*%
D16*
%TO.C,C62*%
X91525000Y-48000000D03*
X94475000Y-48000000D03*
%TD*%
D12*
%TO.C,C63*%
X92225000Y-52000000D03*
X93775000Y-52000000D03*
%TD*%
%TO.C,C41*%
X83225000Y-44000000D03*
X84775000Y-44000000D03*
%TD*%
D16*
%TO.C,C42*%
X82525000Y-48000000D03*
X85475000Y-48000000D03*
%TD*%
D11*
%TO.C,R50*%
X101175000Y-16000000D03*
X102825000Y-16000000D03*
%TD*%
%TO.C,R61*%
X101175000Y-46000000D03*
X102825000Y-46000000D03*
%TD*%
D12*
%TO.C,C72*%
X113225000Y-32000000D03*
X114775000Y-32000000D03*
%TD*%
D10*
%TO.C,R32*%
X66000000Y-98825000D03*
X66000000Y-97175000D03*
%TD*%
D12*
%TO.C,C35*%
X39225000Y-60500000D03*
X40775000Y-60500000D03*
%TD*%
D10*
%TO.C,R28*%
X60000000Y-98825000D03*
X60000000Y-97175000D03*
%TD*%
D12*
%TO.C,C70*%
X105225000Y-32000000D03*
X106775000Y-32000000D03*
%TD*%
D15*
%TO.C,C7*%
X91550000Y-55000000D03*
X93450000Y-55000000D03*
%TD*%
D10*
%TO.C,R27*%
X60000000Y-92825000D03*
X60000000Y-91175000D03*
%TD*%
D16*
%TO.C,C46*%
X46525000Y-56000000D03*
X49475000Y-56000000D03*
%TD*%
D12*
%TO.C,C44*%
X83225000Y-56000000D03*
X84775000Y-56000000D03*
%TD*%
%TO.C,C69*%
X101225000Y-32000000D03*
X102775000Y-32000000D03*
%TD*%
%TO.C,C36*%
X46225000Y-42000000D03*
X47775000Y-42000000D03*
%TD*%
D11*
%TO.C,R59*%
X93175000Y-46000000D03*
X94825000Y-46000000D03*
%TD*%
D16*
%TO.C,C45*%
X82525000Y-60000000D03*
X85475000Y-60000000D03*
%TD*%
D11*
%TO.C,R44*%
X95175000Y-40000000D03*
X96825000Y-40000000D03*
%TD*%
D10*
%TO.C,R31*%
X66000000Y-92825000D03*
X66000000Y-91175000D03*
%TD*%
D12*
%TO.C,C71*%
X109225000Y-32000000D03*
X110775000Y-32000000D03*
%TD*%
D11*
%TO.C,R73*%
X113175000Y-28000000D03*
X114825000Y-28000000D03*
%TD*%
%TO.C,R70*%
X101175000Y-28000000D03*
X102825000Y-28000000D03*
%TD*%
D17*
%TO.C,C66*%
X31300000Y-74000000D03*
X36700000Y-74000000D03*
%TD*%
D11*
%TO.C,R53*%
X109175000Y-20000000D03*
X110825000Y-20000000D03*
%TD*%
%TO.C,R46*%
X103175000Y-40000000D03*
X104825000Y-40000000D03*
%TD*%
%TO.C,R60*%
X97175000Y-46000000D03*
X98825000Y-46000000D03*
%TD*%
D18*
%TO.C,D3*%
X46000000Y-60000000D03*
X50000000Y-60000000D03*
%TD*%
D15*
%TO.C,C38*%
X55050000Y-46000000D03*
X56950000Y-46000000D03*
%TD*%
D11*
%TO.C,R45*%
X99175000Y-40000000D03*
X100825000Y-40000000D03*
%TD*%
%TO.C,R69*%
X119175000Y-40000000D03*
X120825000Y-40000000D03*
%TD*%
M02*
